<?xml version="1.0" encoding="utf-8"?>
<!-- Generator: Adobe Illustrator 16.0.0, SVG Export Plug-In . SVG Version: 6.00 Build 0)  -->
<svg version="1.2" baseProfile="tiny" xmlns="http://www.w3.org/2000/svg" xmlns:xlink="http://www.w3.org/1999/xlink" x="0px"
	 y="0px" width="320.33px" height="200px" viewBox="0 0 320.33 200" xml:space="preserve">
<g id="Layer_2">
</g>
<g id="Layer_1">
	<g>
		<g>
			<g>
				<path fill="#B22424" d="M51,155H32V8.91c0,0,6.45,7.5,9.5,7.5s9.5-7.5,9.5-7.5V155z"/>
				<path fill="#B2B2B2" d="M69,155H51V8.91c0,0,5.93,7.5,9,7.5c3.07,0,9-7.5,9-7.5V155z"/>
				<path fill="#B2B2B2" d="M105,155H87V8.91c0,0,5.95,7.5,9,7.5s9-7.5,9-7.5V155z"/>
				<path fill="#B2B2B2" d="M142,155h-19V8.91c0,0,6.43,7.5,9.5,7.5s9.5-7.5,9.5-7.5V155z"/>
				<path fill="#B22424" d="M87,155H69V8.91c0,0,5.95,7.5,9,7.5c3.05,0,9-7.5,9-7.5V155z"/>
				<path fill="#B22424" d="M123,155h-18V8.91c0,0,5.95,7.5,9,7.5s9-7.5,9-7.5V155z"/>
			</g>
			<g>
				<path fill="#B22424" d="M148,159.76l-6-5.63V8.95c0,0,1.96,9.36,3,10.31c1.04,0.95,3-4.68,3-4.68V159.76z"/>
				<path fill="#B2B2B2" d="M154,165.53l-6-5.77V14.57c0,0,1.95,9.43,3,10.38c1.05,0.95,3-4.61,3-4.61V165.53z"/>
				<path fill="#B2B2B2" d="M167,176.78l-7-5.63V25.97c0,0,2.46,9.36,3.5,10.31c1.04,0.95,3.5-4.68,3.5-4.68V176.78z"/>
				<path fill="#B22424" d="M160,171.16l-6-5.63V20.34c0,0,1.96,9.36,3,10.31s3-4.68,3-4.68V171.16z"/>
			</g>
		</g>
		<g>
			<g>
				<path fill="#E8E7BF" d="M54.35,40.22c0.66,2.64-1.16,5.27-4.07,5.89c-2.91,0.62-5.8-1.02-6.46-3.66
					c-0.66-2.64,1.16-5.27,4.07-5.89C50.8,35.95,53.69,37.58,54.35,40.22z"/>
				<path fill="#E8E7BF" d="M51.75,46.95c-0.45-1.82,0.79-3.64,2.78-4.06c1.99-0.42,3.97,0.71,4.42,2.53"/>
				<path fill="#E8E7BF" d="M55.04,35.47c-0.42-1.69-1.62-2.88-2.67-2.66c-1.05,0.22-1.57,1.78-1.14,3.47
					c0.42,1.69,1.62,2.88,2.67,2.66C54.95,38.71,55.46,37.16,55.04,35.47z"/>
				<path fill="#E8E7BF" d="M48.77,46.7c-0.34-1.35-1.73-2.21-3.11-1.92c-1.38,0.29-2.22,1.63-1.88,2.98"/>
				<path fill="#E8E7BF" d="M47.92,36.69c0.37,1.47-0.88,2.99-2.78,3.39c-1.9,0.4-3.74-0.46-4.11-1.93
					c-0.37-1.47,0.88-2.99,2.78-3.39C45.71,34.36,47.55,35.22,47.92,36.69z"/>
				<path fill="#E8E7BF" d="M41.44,43.8c0.38,1.54,2.27,2.45,4.21,2.04s3.2-1.99,2.81-3.53c-0.38-1.54-2.27-2.46-4.21-2.04
					C42.31,40.68,41.05,42.26,41.44,43.8z"/>
				<path fill="#E8E7BF" d="M51.62,36.57c-0.28-1.12-1.3-1.86-2.28-1.65c-0.98,0.21-1.54,1.28-1.26,2.4s1.3,1.86,2.28,1.65
					C51.34,38.77,51.9,37.69,51.62,36.57z"/>
				<path fill="#E8E7BF" d="M57.69,40.36c0.38,1.54-0.79,3.1-2.62,3.49c-1.83,0.39-3.63-0.54-4.01-2.08
					c-0.38-1.54,0.79-3.1,2.62-3.49C55.5,37.88,57.3,38.82,57.69,40.36z"/>
				<path fill="#E8E7BF" d="M54.78,40.2c-0.25-1.76-1.83-3.37-4.27-2.86c-0.15,0.03-0.29,0.07-0.42,0.11
					c-0.74-0.59-1.76-0.89-3.01-0.63c-4.51,0.96-2.93,7.35,1.57,6.43c0.57,1.38,2.01,2.42,4.03,1.99
					C55.5,44.64,55.94,41.93,54.78,40.2z"/>
				<path fill="#A08047" d="M51.59,39.02c-0.25-0.42-0.86-0.31-1.04,0.09c-0.17,0.39-0.28,0.92-0.53,1.32c-0.05,0-0.11,0-0.16,0.02
					c-0.18-0.07-0.4-0.07-0.6,0.08c-0.21,0.16-0.49,0-0.66-0.14c-0.23-0.18-0.56-0.23-0.8-0.02c-0.21,0.18-0.26,0.55-0.02,0.74
					c0.31,0.24,0.66,0.42,1.02,0.49c-0.17,0.26-0.3,0.54-0.36,0.85c-0.06,0.28,0.05,0.56,0.37,0.65c0.25,0.07,0.59-0.04,0.69-0.28
					c0.11,0.01,0.22-0.01,0.32-0.06c0.09-0.05,0.18-0.1,0.27-0.15c0.28,0.14,0.58,0.22,0.91,0.17c0.5-0.09,0.8-0.46,0.95-0.88
					C52.26,41.01,52.07,39.81,51.59,39.02z"/>
			</g>
			<g>
				<path fill="#E8E7BF" d="M88.36,14.24c1.18,4.73-2.05,9.45-7.22,10.55c-5.17,1.1-10.31-1.85-11.49-6.58
					c-1.18-4.73,2.05-9.45,7.22-10.55C82.03,6.57,87.18,9.52,88.36,14.24z"/>
				<path fill="#E8E7BF" d="M93.04,24.16c0.82,3.3-1.43,6.59-5.03,7.35c-3.6,0.76-7.19-1.29-8.02-4.59s1.43-6.59,5.03-7.35
					C88.63,18.81,92.22,20.87,93.04,24.16z"/>
				<path fill="#E8E7BF" d="M69.07,29.37c0.79,3.17,4.25,5.15,7.71,4.41c3.47-0.74,5.63-3.9,4.84-7.08
					c-0.79-3.17-4.25-5.15-7.71-4.41C70.44,23.03,68.28,26.2,69.07,29.37z"/>
				<path fill="#E8E7BF" d="M57.31,23.8c1.03,4.11,5.5,6.66,9.98,5.71c4.49-0.95,7.29-5.05,6.27-9.16c-1.03-4.11-5.5-6.66-9.98-5.71
					C59.09,15.59,56.28,19.69,57.31,23.8z"/>
				<path fill="#E8E7BF" d="M79.32,12.55c-2.15,0.46-3.82,1.87-4.63,3.63c-1.25-0.5-2.67-0.65-4.08-0.35
					c-3.52,0.75-5.79,4.06-4.98,7.29s4.42,5.29,7.94,4.54c2.15-0.46,3.82-1.87,4.63-3.63c1.25,0.5,2.67,0.65,4.08,0.35
					c3.52-0.75,5.79-4.06,4.98-7.29C86.45,13.86,82.84,11.8,79.32,12.55z"/>
			</g>
			<g>
				<path fill="#E8E7BF" d="M51.57,45.83"/>
				<path fill="#E8E7BF" d="M41.17,44.66c3.21-0.68,6.41,1.15,7.15,4.09"/>
				<path fill="#E8E7BF" d="M58.79,45.55c-0.61-2.43-2.65-4.06-4.56-3.66c-1.91,0.41-2.97,2.7-2.36,5.13"/>
				<path fill="#E8E7BF" d="M52.98,46.43"/>
			</g>
			<g>
				<path fill="#E8E7BF" d="M138.41,35.06c0.84,3.36-1.41,6.71-5.03,7.47c-3.62,0.77-7.24-1.33-8.08-4.69
					c-0.84-3.36,1.42-6.71,5.03-7.47C133.96,29.6,137.57,31.7,138.41,35.06z"/>
				<path fill="#E8E7BF" d="M125.57,42.81c0.51,2.03,2.59,3.32,4.66,2.88c2.07-0.44,3.33-2.44,2.82-4.47
					c-0.51-2.03-2.59-3.32-4.66-2.88C126.33,38.78,125.06,40.78,125.57,42.81z"/>
				<path fill="#E8E7BF" d="M123.55,39.37c0.38,1.54,2.31,2.45,4.3,2.02c1.99-0.42,3.29-2.01,2.9-3.55
					c-0.39-1.54-2.31-2.45-4.3-2.02C124.46,36.24,123.16,37.83,123.55,39.37z"/>
				<path fill="#E8E7BF" d="M143.02,37.15c0.53,2.12-0.44,4.14-2.18,4.51c-1.73,0.37-3.57-1.05-4.1-3.18
					c-0.53-2.12,0.44-4.14,2.18-4.51C140.65,33.6,142.49,35.03,143.02,37.15z"/>
				<path fill="#E8E7BF" d="M139.73,40.34c0.58,2.31-0.73,4.56-2.92,5.02c-2.19,0.46-4.44-1.03-5.01-3.34
					c-0.58-2.31,0.73-4.56,2.92-5.02C136.91,36.53,139.15,38.03,139.73,40.34z"/>
				<path fill="#E8E7BF" d="M132.84,35.71c-4.5,0.95-2.89,7.38,1.6,6.42C138.94,41.18,137.33,34.75,132.84,35.71z"/>
			</g>
			<g>
				<path fill="#E8E7BF" d="M103.19,22.51c0.76,3.03,4.48,4.83,8.31,4.02s6.32-3.93,5.56-6.96s-4.48-4.83-8.3-4.02
					S102.44,19.48,103.19,22.51z"/>
				<path fill="#E8E7BF" d="M108.75,15.55c0.61,2.43,2.36,4.13,3.91,3.8c1.55-0.33,2.32-2.56,1.71-4.99s-2.36-4.13-3.91-3.8
					C108.92,10.89,108.15,13.13,108.75,15.55z"/>
				<path fill="#E8E7BF" d="M112.6,19.09c0.31,1.26,1.82,2.02,3.36,1.69c1.54-0.33,2.54-1.61,2.22-2.87s-1.82-2.02-3.36-1.69
					C113.28,16.55,112.29,17.83,112.6,19.09z"/>
				<path fill="#E8E7BF" d="M110.87,24c0.56,2.24,3.14,3.6,5.76,3.05c2.62-0.56,4.3-2.82,3.74-5.06s-3.14-3.6-5.76-3.05
					C111.98,19.49,110.31,21.76,110.87,24z"/>
				<path fill="#E8E7BF" d="M111.76,16.51c-4.5,0.95-2.89,7.38,1.61,6.42C117.86,21.98,116.26,15.56,111.76,16.51z"/>
			</g>
			<g>
				<path fill="#E8E7BF" d="M145.28,23.64c0.84,3.36-1.41,6.71-5.03,7.47c-3.62,0.77-7.23-1.33-8.08-4.69
					c-0.84-3.36,1.42-6.71,5.04-7.47C140.82,18.18,144.44,20.28,145.28,23.64z"/>
				<path fill="#E8E7BF" d="M132.44,31.39c0.51,2.03,2.59,3.32,4.66,2.88c2.07-0.44,3.33-2.44,2.82-4.47
					c-0.51-2.03-2.59-3.32-4.66-2.88C133.19,27.36,131.93,29.36,132.44,31.39z"/>
				<path fill="#E8E7BF" d="M130.41,27.95c0.38,1.54,2.31,2.45,4.3,2.02s3.29-2.01,2.9-3.55c-0.38-1.54-2.31-2.45-4.3-2.02
					C131.33,24.82,130.03,26.41,130.41,27.95z"/>
				<path fill="#E8E7BF" d="M149.88,25.73c0.53,2.12-0.45,4.14-2.18,4.51c-1.73,0.37-3.57-1.05-4.1-3.18
					c-0.53-2.12,0.44-4.14,2.18-4.51S149.35,23.61,149.88,25.73z"/>
				<path fill="#E8E7BF" d="M146.6,28.92c0.58,2.31-0.73,4.56-2.92,5.02c-2.19,0.47-4.44-1.03-5.01-3.34
					c-0.58-2.31,0.73-4.56,2.92-5.02C143.78,25.11,146.02,26.61,146.6,28.92z"/>
				<path fill="#E8E7BF" d="M139.46,24.34c-4.5,0.95-2.89,7.38,1.6,6.42C146.13,29.69,144.52,23.27,139.46,24.34z"/>
			</g>
			<g>
				<path fill="#E8E7BF" d="M97.12,44.89c-0.84-3.36,1.41-6.71,5.03-7.47c3.62-0.77,7.24,1.33,8.08,4.69"/>
				<path fill="#E8E7BF" d="M104.87,48.27c-0.51-2.03-2.59-3.32-4.66-2.88"/>
				<path fill="#E8E7BF" d="M95.36,46.42c0.38,1.54,2.31,2.45,4.3,2.02c1.99-0.42,3.29-2.01,2.9-3.55c-0.38-1.54-2.31-2.45-4.3-2.02
					C96.28,43.29,94.98,44.88,95.36,46.42z"/>
				<path fill="#E8E7BF" d="M114.84,44.2c0.53,2.12-0.44,4.14-2.18,4.51c-1.73,0.37-3.57-1.05-4.1-3.18
					c-0.53-2.12,0.44-4.14,2.18-4.51C112.47,40.65,114.31,42.08,114.84,44.2z"/>
				<path fill="#E8E7BF" d="M106.54,44.05c2.19-0.47,4.44,1.03,5.02,3.34"/>
				<path fill="#E8E7BF" d="M104.71,42.74"/>
			</g>
			<g>
				<path fill="#E8E7BF" d="M96.44,42.54c3.62-0.77,7.24,1.33,8.08,4.69"/>
				<path fill="#E8E7BF" d="M92.55,47.99"/>
				<path fill="#E8E7BF" d="M105.02,46.15"/>
				<path fill="#E8E7BF" d="M98.61,47.95"/>
			</g>
			<g>
				<path fill="#E8E7BF" d="M121.58,44.33c2.6-0.55,5.19,0.93,5.79,3.31"/>
				<path fill="#E8E7BF" d="M137.13,48.23c-0.55-2.19-2.92-3.56-5.29-3.06"/>
				<path fill="#E8E7BF" d="M129.92,46.96c-0.37-1.47-1.45-2.5-2.41-2.29c-0.96,0.21-1.45,1.56-1.08,3.03"/>
				<path fill="#E8E7BF" d="M125.72,46.29"/>
				<path fill="#A08047" d="M131.16,48.61c0.23-0.55-0.73-0.96-1.02-0.43c-0.14,0.24-0.28,0.48-0.44,0.71"/>
				<path fill="#A08047" d="M127.83,46.91c-0.11-0.29-0.48-0.54-0.82-0.34c-0.71,0.43-0.99,0.95-0.98,1.47"/>
			</g>
			<g>
				<path fill="#E8E7BF" d="M148.06,39.42c0.84,3.36-1.41,6.71-5.03,7.47c-3.62,0.77-7.23-1.33-8.07-4.69
					c-0.84-3.36,1.41-6.71,5.03-7.47S147.22,36.06,148.06,39.42z"/>
				<path fill="#E8E7BF" d="M142.69,45.58c-0.51-2.03-2.59-3.32-4.66-2.88c-2.07,0.44-3.33,2.44-2.82,4.47"/>
				<path fill="#E8E7BF" d="M133.19,43.73c0.38,1.54,2.31,2.45,4.3,2.02s3.29-2.01,2.9-3.55c-0.38-1.54-2.31-2.45-4.3-2.02
					C134.11,40.6,132.81,42.19,133.19,43.73z"/>
				<path fill="#E8E7BF" d="M152.66,41.51c0.53,2.12-0.44,4.14-2.18,4.51s-3.57-1.06-4.1-3.18s0.44-4.14,2.18-4.51
					C150.3,37.96,152.13,39.39,152.66,41.51z"/>
				<path fill="#E8E7BF" d="M141.44,46.38c-0.58-2.31,0.73-4.56,2.92-5.02s4.44,1.03,5.01,3.34"/>
				<path fill="#E8E7BF" d="M142.5,40.06c-4.78,1.01-3.17,7.43,1.61,6.42C148.89,45.47,147.28,39.05,142.5,40.06z"/>
			</g>
			<g>
				<path fill="#E8E7BF" d="M114.09,17.89c0.76,3.03-1.6,6.12-5.27,6.9c-3.67,0.78-7.26-1.05-8.02-4.08
					c-0.76-3.03,1.6-6.12,5.27-6.9C109.75,13.03,113.34,14.86,114.09,17.89z"/>
				<path fill="#E8E7BF" d="M105.55,11.69c0.59,2.38-1.03,4.76-3.63,5.31c-2.6,0.55-5.19-0.93-5.79-3.31s1.03-4.76,3.63-5.31
					C102.36,7.83,104.95,9.32,105.55,11.69z"/>
				<path fill="#E8E7BF" d="M106.73,14.11c0.55,2.19,2.92,3.56,5.29,3.06c2.37-0.5,3.85-2.69,3.3-4.88
					c-0.55-2.19-2.92-3.56-5.29-3.06C107.66,9.73,106.19,11.92,106.73,14.11z"/>
				<path fill="#E8E7BF" d="M107.05,17.69c-0.54-2.15-3.58-3.33-6.79-2.65c-3.21,0.68-5.38,2.97-4.84,5.12s3.58,3.33,6.79,2.65
					C105.41,22.13,107.58,19.84,107.05,17.69z"/>
				<path fill="#E8E7BF" d="M104.61,11.76c0.37,1.47,1.45,2.5,2.41,2.29c0.96-0.2,1.45-1.56,1.08-3.03
					c-0.37-1.47-1.45-2.5-2.41-2.29C104.72,8.93,104.24,10.29,104.61,11.76z"/>
				<path fill="#E8E7BF" d="M104,10.33c-4.5,0.95-2.89,7.37,1.6,6.42C110.39,15.74,108.78,9.32,104,10.33z"/>
				<path fill="#A08047" d="M108.32,12.24c-0.14,0.24-0.28,0.48-0.44,0.71c-0.5,0.51-1.2,0.46-1.73,0.17
					c0.2-0.63,0.18-1.36-0.13-2.14c-0.12-0.29-0.48-0.55-0.82-0.34c-0.71,0.43-0.99,0.95-0.98,1.47c-0.43,0.68-0.73,1.31-0.77,2.04
					c-0.45,0.05-0.98-0.03-1.54-0.3c-0.65-0.31-1.26,0.58-0.6,0.88c0.89,0.42,1.77,0.51,2.54,0.36c0.1,0.03,0.21,0.03,0.3,0.02
					c0.33-0.04,0.67-0.05,1-0.07c-0.02,0.28-0.12,0.55-0.32,0.79c-0.4,0.57,0.57,1.12,0.96,0.55c0.35-0.5,0.49-0.99,0.48-1.54
					c0.02,0,0.03,0.01,0.05,0.01c1.09,0.15,1.89-0.49,2.46-1.26c0.22-0.24,0.42-0.54,0.58-0.92
					C109.57,12.12,108.61,11.72,108.32,12.24z"/>
			</g>
			<g>
				<path fill="#E8E7BF" d="M80.28,17.95c0.85,3.41-1.48,6.81-5.2,7.6c-3.72,0.79-7.43-1.33-8.28-4.74c-0.85-3.41,1.48-6.81,5.2-7.6
					C75.72,12.42,79.43,14.54,80.28,17.95z"/>
				<path fill="#E8E7BF" d="M71,18.94c0.49,1.96-0.85,3.92-2.99,4.37c-2.14,0.45-4.27-0.77-4.76-2.73s0.85-3.92,2.99-4.37
					C68.38,15.76,70.51,16.98,71,18.94z"/>
				<path fill="#E8E7BF" d="M80.86,25.74c0.49,1.96-0.85,3.92-2.99,4.37c-2.14,0.45-4.27-0.77-4.76-2.73
					c-0.49-1.96,0.85-3.92,2.99-4.37C78.24,22.56,80.37,23.78,80.86,25.74z"/>
				<path fill="#E8E7BF" d="M64.08,26.28c0.77,3.08,4.12,5,7.49,4.28c3.36-0.71,5.47-3.79,4.7-6.87c-0.77-3.08-4.12-5-7.49-4.28
					C65.42,20.12,63.31,23.2,64.08,26.28z"/>
				<path fill="#E8E7BF" d="M72.8,15.71c-4.5,0.95-2.89,7.38,1.6,6.42C79.18,21.11,77.58,14.69,72.8,15.71z"/>
			</g>
			<g>
				<path fill="#E8E7BF" d="M110.88,45.88"/>
			</g>
			<g>
				<path fill="#E8E7BF" d="M74.05,47.83"/>
				<path fill="#E8E7BF" d="M79.67,46.63c-0.61-2.43-2.36-4.13-3.91-3.8s-2.32,2.56-1.71,4.99"/>
				<path fill="#E8E7BF" d="M80.11,48.5"/>
				<path fill="#E8E7BF" d="M76.93,48.82"/>
			</g>
			<g>
				<path fill="#E8E7BF" d="M104.85,24.48c0.76,3.03-1.6,6.12-5.27,6.9c-3.67,0.78-7.26-1.05-8.02-4.08
					c-0.76-3.03,1.6-6.12,5.27-6.9C100.5,19.62,104.09,21.44,104.85,24.48z"/>
				<path fill="#E8E7BF" d="M96.3,18.28c0.59,2.38-1.03,4.76-3.63,5.31c-2.6,0.55-5.19-0.93-5.79-3.31
					c-0.59-2.38,1.03-4.76,3.63-5.31C93.12,14.42,95.71,15.9,96.3,18.28z"/>
				<path fill="#E8E7BF" d="M97.49,20.7c0.55,2.19,2.91,3.56,5.29,3.06c2.37-0.5,3.85-2.69,3.3-4.88c-0.55-2.19-2.92-3.56-5.29-3.06
					C98.42,16.32,96.94,18.51,97.49,20.7z"/>
				<path fill="#E8E7BF" d="M97.8,24.28c-0.54-2.15-3.58-3.33-6.79-2.65c-3.21,0.68-5.38,2.97-4.84,5.12
					c0.54,2.15,3.58,3.33,6.79,2.65C96.17,28.72,98.34,26.43,97.8,24.28z"/>
				<path fill="#E8E7BF" d="M95.37,18.35c0.37,1.47,1.45,2.5,2.41,2.29s1.45-1.56,1.08-3.03c-0.37-1.47-1.45-2.5-2.41-2.29
					C95.48,15.52,95,16.88,95.37,18.35z"/>
				<path fill="#E8E7BF" d="M94.71,16.93c-4.5,0.95-2.89,7.38,1.61,6.42C100.81,22.4,99.2,15.98,94.71,16.93z"/>
				<path fill="#A08047" d="M99.07,18.83c-0.14,0.24-0.28,0.48-0.44,0.71c-0.5,0.51-1.2,0.46-1.73,0.17
					c0.19-0.63,0.18-1.36-0.13-2.14c-0.11-0.29-0.48-0.54-0.82-0.34c-0.71,0.43-0.99,0.95-0.98,1.47c-0.44,0.68-0.73,1.31-0.77,2.04
					c-0.45,0.05-0.98-0.03-1.54-0.3c-0.65-0.31-1.26,0.58-0.6,0.88c0.89,0.42,1.77,0.51,2.54,0.36c0.1,0.03,0.21,0.03,0.3,0.02
					c0.33-0.04,0.67-0.05,1-0.07c-0.02,0.28-0.13,0.55-0.32,0.79c-0.4,0.57,0.57,1.12,0.96,0.55c0.35-0.5,0.49-0.99,0.48-1.54
					c0.02,0,0.03,0.01,0.05,0.01c1.09,0.15,1.89-0.49,2.46-1.26c0.22-0.24,0.42-0.54,0.58-0.92C100.33,18.71,99.37,18.3,99.07,18.83
					z"/>
			</g>
			<g>
				<path fill="#E8E7BF" d="M121.84,27.9c0.84,3.36-1.41,6.71-5.03,7.47c-3.62,0.77-7.24-1.33-8.08-4.69
					c-0.84-3.36,1.42-6.71,5.04-7.47C117.39,22.44,121.01,24.54,121.84,27.9z"/>
				<path fill="#E8E7BF" d="M109.01,35.65c0.51,2.03,2.59,3.32,4.66,2.88c2.07-0.44,3.33-2.44,2.82-4.47
					c-0.51-2.03-2.59-3.32-4.66-2.88C109.76,31.62,108.5,33.62,109.01,35.65z"/>
				<path fill="#E8E7BF" d="M106.98,32.21c0.39,1.54,2.31,2.45,4.3,2.02c1.99-0.42,3.29-2.01,2.9-3.55
					c-0.38-1.54-2.31-2.45-4.3-2.02S106.59,30.67,106.98,32.21z"/>
				<path fill="#E8E7BF" d="M126.45,29.99c0.53,2.12-0.44,4.14-2.18,4.51c-1.73,0.37-3.57-1.05-4.1-3.18
					c-0.53-2.12,0.44-4.14,2.18-4.51C124.08,26.44,125.92,27.87,126.45,29.99z"/>
				<path fill="#E8E7BF" d="M123.17,33.18c0.58,2.31-0.73,4.56-2.92,5.02c-2.19,0.47-4.44-1.03-5.01-3.34
					c-0.58-2.31,0.73-4.56,2.92-5.02C120.34,29.37,122.59,30.87,123.17,33.18z"/>
				<path fill="#E8E7BF" d="M116.25,28.55c-4.5,0.95-2.89,7.38,1.6,6.42C122.63,33.96,121.03,27.54,116.25,28.55z"/>
			</g>
			<g>
				<path fill="#E8E7BF" d="M99.22,23.71c0.76,3.03,4.48,4.83,8.31,4.02c3.83-0.81,6.32-3.93,5.56-6.96
					c-0.76-3.03-4.48-4.83-8.3-4.02S98.46,20.68,99.22,23.71z"/>
				<path fill="#E8E7BF" d="M104.78,16.75c0.61,2.43,2.36,4.13,3.91,3.8c1.55-0.33,2.32-2.56,1.71-4.99
					c-0.61-2.43-2.36-4.13-3.91-3.8C104.94,12.09,104.17,14.33,104.78,16.75z"/>
				<path fill="#E8E7BF" d="M108.62,20.29c0.32,1.26,1.82,2.02,3.36,1.69c1.54-0.33,2.54-1.61,2.22-2.87
					c-0.32-1.26-1.82-2.02-3.36-1.69S108.31,19.04,108.62,20.29z"/>
				<path fill="#E8E7BF" d="M106.89,25.2c0.56,2.24,3.14,3.6,5.76,3.05c2.62-0.56,4.3-2.82,3.74-5.06c-0.56-2.24-3.14-3.6-5.76-3.05
					C108,20.69,106.33,22.96,106.89,25.2z"/>
				<path fill="#E8E7BF" d="M107.63,17.75c-4.5,0.95-2.89,7.38,1.6,6.42C113.73,23.21,112.13,16.79,107.63,17.75z"/>
			</g>
			<g>
				<path fill="#E8E7BF" d="M140.17,47.14"/>
				<path fill="#E8E7BF" d="M150.44,47.99"/>
				<path fill="#E8E7BF" d="M146.1,47.49"/>
			</g>
			<g>
				<path fill="#E8E7BF" d="M79.36,43.05c0.31,1.26-2.03,2.83-5.25,3.52c-3.21,0.68-6.07,0.21-6.39-1.05
					c-0.31-1.26,2.03-2.83,5.25-3.52C76.18,41.32,79.04,41.79,79.36,43.05z"/>
				<path fill="#E8E7BF" d="M80.48,39.75c0.47,1.89-1.25,3.87-3.85,4.42c-2.6,0.55-5.09-0.53-5.56-2.42
					c-0.47-1.89,1.25-3.87,3.85-4.42C77.51,36.77,80,37.86,80.48,39.75z"/>
				<path fill="#E8E7BF" d="M76.26,46.2c-0.55-2.19,0.25-4.23,1.78-4.56s3.21,1.19,3.76,3.38"/>
				<path fill="#E8E7BF" d="M76.84,45.04c-0.46-1.85-1.89-3.12-3.19-2.85c-1.3,0.28-1.98,2-1.52,3.85"/>
				<path fill="#A08047" d="M76.33,48.26c0.07-0.05,0.14-0.1,0.21-0.15c0.5-0.39-0.1-1.1-0.66-0.84c-0.23,0.09-0.44,0.11-0.65,0.06
					c0.38-1.3,1.06-3.27-0.86-3.6c-0.28-0.05-0.65,0.04-0.71,0.34c-0.12,0.56-0.14,1.14-0.36,1.68c-0.26,0.63,0.83,0.93,1.08,0.31
					c0.08-0.2,0.13-0.41,0.17-0.61c0,0.62-0.38,1.48-0.51,1.93c-0.22-0.15-0.41-0.33-0.58-0.56c-0.41-0.56-1.28-0.13-1,0.5
					c0.35,0.8,0.96,1.27,1.66,1.42c0.04,0.05,0.08,0.09,0.14,0.12"/>
			</g>
			<g>
				<path fill="#E8E7BF" d="M131.13,21.86c0.52,2.09-0.91,4.19-3.2,4.67c-2.29,0.49-4.57-0.82-5.09-2.91
					c-0.52-2.09,0.91-4.19,3.2-4.67S130.61,19.76,131.13,21.86z"/>
				<path fill="#E8E7BF" d="M133.2,26.25c0.37,1.46-0.63,2.92-2.23,3.26s-3.19-0.57-3.55-2.03c-0.36-1.46,0.63-2.92,2.23-3.26
					C131.25,23.88,132.84,24.79,133.2,26.25z"/>
				<path fill="#E8E7BF" d="M122.58,28.55c0.35,1.41,1.88,2.28,3.42,1.95c1.54-0.33,2.5-1.73,2.14-3.13
					c-0.35-1.41-1.88-2.28-3.42-1.96C123.19,25.75,122.23,27.15,122.58,28.55z"/>
				<path fill="#E8E7BF" d="M117.38,26.09c0.45,1.82,2.43,2.95,4.42,2.53c1.99-0.42,3.23-2.24,2.78-4.06
					c-0.46-1.82-2.43-2.95-4.42-2.53C118.16,22.45,116.92,24.27,117.38,26.09z"/>
				<path fill="#E8E7BF" d="M127.12,21.1c-0.95,0.2-1.69,0.83-2.05,1.61c-0.55-0.22-1.18-0.29-1.81-0.16
					c-1.56,0.33-2.56,1.8-2.21,3.23c0.36,1.43,1.96,2.34,3.52,2.01c0.95-0.2,1.69-0.83,2.05-1.61c0.56,0.22,1.19,0.29,1.81,0.16
					c1.56-0.33,2.56-1.8,2.21-3.23C130.28,21.69,128.68,20.77,127.12,21.1z"/>
			</g>
			<g>
				<path fill="#E8E7BF" d="M41.77,46.31"/>
				<path fill="#E8E7BF" d="M42.61,48.8"/>
			</g>
			<g>
				<path fill="#E8E7BF" d="M90.17,34.97c0.84,3.36-1.41,6.71-5.03,7.47c-3.62,0.77-7.24-1.33-8.08-4.69
					c-0.84-3.36,1.41-6.71,5.03-7.47C85.72,29.51,89.33,31.62,90.17,34.97z"/>
				<path fill="#E8E7BF" d="M77.33,42.73c0.51,2.03,2.59,3.32,4.66,2.88c2.06-0.44,3.33-2.44,2.82-4.47
					c-0.51-2.03-2.59-3.32-4.66-2.88C78.09,38.7,76.82,40.7,77.33,42.73z"/>
				<path fill="#E8E7BF" d="M75.31,39.29c0.38,1.54,2.31,2.45,4.3,2.02c1.99-0.42,3.29-2.01,2.9-3.55c-0.39-1.54-2.31-2.45-4.3-2.02
					C76.22,36.16,74.92,37.75,75.31,39.29z"/>
				<path fill="#E8E7BF" d="M94.78,37.07c0.53,2.12-0.44,4.14-2.18,4.51c-1.73,0.37-3.57-1.06-4.1-3.18
					c-0.53-2.12,0.44-4.14,2.18-4.51C92.41,33.52,94.25,34.94,94.78,37.07z"/>
				<path fill="#E8E7BF" d="M91.49,40.26c0.58,2.31-0.73,4.56-2.92,5.02c-2.19,0.47-4.44-1.03-5.02-3.34s0.73-4.56,2.92-5.02
					C88.67,36.45,90.91,37.95,91.49,40.26z"/>
				<path fill="#E8E7BF" d="M84.3,35.69c-4.21,0.89-2.61,7.31,1.6,6.42C90.69,41.09,89.08,34.67,84.3,35.69z"/>
			</g>
			<g>
				<path fill="#E8E7BF" d="M72.83,28.6c0.76,3.03,4.48,4.83,8.31,4.02c3.83-0.81,6.32-3.93,5.56-6.96s-4.48-4.83-8.3-4.02
					C74.56,22.45,72.07,25.57,72.83,28.6z"/>
				<path fill="#E8E7BF" d="M78.39,21.64c0.61,2.43,2.36,4.13,3.91,3.8c1.55-0.33,2.32-2.56,1.71-4.99s-2.36-4.13-3.91-3.8
					S77.78,19.21,78.39,21.64z"/>
				<path fill="#E8E7BF" d="M82.24,25.18c0.31,1.26,1.82,2.02,3.36,1.69c1.54-0.33,2.54-1.61,2.22-2.87s-1.82-2.02-3.36-1.69
					C82.92,22.64,81.92,23.92,82.24,25.18z"/>
				<path fill="#E8E7BF" d="M80.5,30.09c0.56,2.24,3.14,3.6,5.76,3.05c2.62-0.56,4.3-2.82,3.74-5.06c-0.56-2.24-3.14-3.6-5.76-3.05
					C81.61,25.58,79.94,27.85,80.5,30.09z"/>
				<path fill="#E8E7BF" d="M81.05,22.68c-4.21,0.89-2.61,7.32,1.6,6.42C87.15,28.14,85.55,21.72,81.05,22.68z"/>
			</g>
			<g>
				<path fill="#E8E7BF" d="M128.23,18.45c0.76,3.03-1.6,6.12-5.27,6.9c-3.67,0.78-7.26-1.05-8.02-4.08
					c-0.76-3.03,1.6-6.12,5.27-6.9S127.47,15.41,128.23,18.45z"/>
				<path fill="#E8E7BF" d="M119.68,12.25c0.6,2.38-1.03,4.76-3.63,5.31s-5.19-0.93-5.79-3.31c-0.59-2.38,1.03-4.76,3.63-5.31
					C116.5,8.39,119.09,9.87,119.68,12.25z"/>
				<path fill="#E8E7BF" d="M120.87,14.67c0.55,2.19,2.92,3.56,5.29,3.06c2.37-0.5,3.85-2.69,3.3-4.88
					c-0.55-2.19-2.91-3.56-5.29-3.06C121.8,10.29,120.32,12.48,120.87,14.67z"/>
				<path fill="#E8E7BF" d="M121.18,18.25c-0.54-2.15-3.58-3.33-6.79-2.65c-3.21,0.68-5.38,2.97-4.84,5.12
					c0.54,2.15,3.58,3.33,6.79,2.65C119.55,22.69,121.72,20.4,121.18,18.25z"/>
				<path fill="#E8E7BF" d="M118.75,12.32c0.37,1.47,1.45,2.5,2.41,2.29c0.96-0.2,1.45-1.56,1.08-3.03s-1.45-2.5-2.41-2.29
					C118.86,9.49,118.38,10.85,118.75,12.32z"/>
				<path fill="#E8E7BF" d="M118.06,10.91c-4.5,0.95-2.89,7.37,1.6,6.42C124.44,16.32,122.83,9.9,118.06,10.91z"/>
				<path fill="#A08047" d="M122.46,12.8c-0.14,0.24-0.28,0.48-0.44,0.71c-0.5,0.51-1.2,0.46-1.73,0.17
					c0.2-0.63,0.18-1.36-0.13-2.14c-0.11-0.29-0.48-0.55-0.82-0.34c-0.71,0.43-0.99,0.95-0.98,1.47c-0.44,0.68-0.73,1.31-0.77,2.04
					c-0.45,0.05-0.98-0.03-1.54-0.3c-0.65-0.31-1.26,0.58-0.6,0.88c0.89,0.42,1.77,0.51,2.54,0.36c0.1,0.03,0.2,0.03,0.3,0.02
					c0.33-0.04,0.67-0.05,1-0.07c-0.02,0.28-0.13,0.55-0.32,0.79c-0.4,0.57,0.57,1.12,0.96,0.55c0.35-0.5,0.49-0.99,0.48-1.54
					c0.02,0,0.03,0.01,0.05,0.01c1.09,0.15,1.89-0.49,2.46-1.26c0.22-0.24,0.42-0.54,0.58-0.92
					C123.71,12.68,122.75,12.27,122.46,12.8z"/>
			</g>
			<g>
				<path fill="#E8E7BF" d="M116.25,24.7c1.18,4.73-2.05,9.45-7.22,10.55s-10.31-1.85-11.5-6.58c-1.18-4.73,2.05-9.45,7.22-10.55
					C109.92,17.02,115.07,19.97,116.25,24.7z"/>
				<path fill="#E8E7BF" d="M120.93,34.62c0.82,3.3-1.43,6.59-5.03,7.35c-3.6,0.76-7.19-1.29-8.02-4.59
					c-0.83-3.3,1.43-6.59,5.03-7.35S120.11,31.32,120.93,34.62z"/>
				<path fill="#E8E7BF" d="M96.96,39.82c0.79,3.17,4.25,5.15,7.71,4.41s5.63-3.9,4.84-7.08c-0.79-3.17-4.25-5.15-7.71-4.41
					C98.33,33.48,96.16,36.65,96.96,39.82z"/>
				<path fill="#E8E7BF" d="M85.19,34.25c1.03,4.11,5.5,6.66,9.98,5.71c4.49-0.95,7.29-5.05,6.27-9.16
					c-1.03-4.11-5.5-6.66-9.98-5.71C86.97,26.04,84.17,30.15,85.19,34.25z"/>
				<path fill="#E8E7BF" d="M107.2,23c-2.15,0.46-3.82,1.87-4.63,3.63c-1.25-0.5-2.67-0.65-4.08-0.35
					c-3.52,0.75-5.79,4.06-4.98,7.29c0.81,3.22,4.42,5.29,7.94,4.54c2.15-0.46,3.82-1.87,4.63-3.63c1.25,0.5,2.67,0.65,4.08,0.35
					c3.52-0.75,5.79-4.06,4.99-7.29C114.34,24.32,110.73,22.25,107.2,23z"/>
			</g>
			<g>
				<path fill="#E8E7BF" d="M61.03,48.28c-0.84-3.36,1.41-6.71,5.03-7.47s7.24,1.33,8.08,4.69"/>
				<path fill="#E8E7BF" d="M64.12,48.78"/>
				<path fill="#E8E7BF" d="M66.47,48.28c-0.39-1.54-2.31-2.45-4.3-2.02"/>
				<path fill="#E8E7BF" d="M74.64,44.41c1.73-0.37,3.57,1.05,4.1,3.18"/>
				<path fill="#E8E7BF" d="M70.44,47.44"/>
				<path fill="#E8E7BF" d="M68.57,46.14"/>
			</g>
			<g>
				<path fill="#E8E7BF" d="M114.02,44.06c0.76,3.03,4.48,4.83,8.31,4.02s6.32-3.93,5.56-6.96c-0.76-3.03-4.48-4.83-8.3-4.02
					S113.27,41.03,114.02,44.06z"/>
				<path fill="#E8E7BF" d="M119.58,37.1c0.61,2.43,2.36,4.13,3.91,3.8c1.55-0.33,2.32-2.56,1.71-4.99
					c-0.61-2.43-2.36-4.13-3.91-3.8C119.74,32.44,118.98,34.67,119.58,37.1z"/>
				<path fill="#E8E7BF" d="M123.43,40.64c0.31,1.26,1.82,2.02,3.36,1.69c1.54-0.33,2.54-1.61,2.22-2.87
					c-0.32-1.26-1.82-2.02-3.36-1.69C124.11,38.09,123.12,39.38,123.43,40.64z"/>
				<path fill="#E8E7BF" d="M121.7,45.55c0.56,2.24,3.14,3.6,5.76,3.05c2.62-0.56,4.3-2.82,3.74-5.06c-0.56-2.24-3.14-3.6-5.76-3.05
					C122.81,41.04,121.14,43.31,121.7,45.55z"/>
				<path fill="#E8E7BF" d="M122.48,38.08c-4.5,0.95-2.89,7.37,1.6,6.42C128.86,43.49,127.26,37.07,122.48,38.08z"/>
			</g>
			<g>
				<path fill="#E8E7BF" d="M71.08,30.93c0.76,3.03-1.6,6.12-5.27,6.9c-3.67,0.78-7.26-1.05-8.02-4.08c-0.76-3.03,1.6-6.12,5.27-6.9
					C66.73,26.07,70.32,27.9,71.08,30.93z"/>
				<path fill="#E8E7BF" d="M62.53,24.74c0.59,2.38-1.03,4.76-3.63,5.31s-5.19-0.93-5.79-3.31c-0.59-2.38,1.03-4.76,3.63-5.31
					C59.35,20.88,61.94,22.36,62.53,24.74z"/>
				<path fill="#E8E7BF" d="M63.72,27.15c0.55,2.19,2.91,3.56,5.29,3.06c2.37-0.5,3.85-2.69,3.3-4.88
					c-0.55-2.19-2.91-3.56-5.29-3.06C64.65,22.78,63.17,24.96,63.72,27.15z"/>
				<path fill="#E8E7BF" d="M64.03,30.74c-0.54-2.15-3.58-3.33-6.79-2.65c-3.21,0.68-5.38,2.97-4.84,5.12
					c0.54,2.15,3.58,3.33,6.79,2.65S64.57,32.88,64.03,30.74z"/>
				<path fill="#E8E7BF" d="M61.59,24.8c0.37,1.47,1.45,2.5,2.41,2.29c0.96-0.2,1.45-1.56,1.08-3.03c-0.37-1.47-1.45-2.5-2.41-2.29
					C61.71,21.98,61.23,23.33,61.59,24.8z"/>
				<path fill="#E8E7BF" d="M60.82,23.41c-4.5,0.95-2.89,7.38,1.6,6.42C67.2,28.82,65.6,22.4,60.82,23.41z"/>
				<path fill="#A08047" d="M65.3,25.28c-0.14,0.24-0.28,0.48-0.44,0.71c-0.5,0.51-1.2,0.46-1.73,0.17
					c0.19-0.63,0.18-1.36-0.13-2.14c-0.11-0.29-0.48-0.55-0.82-0.34c-0.71,0.43-0.99,0.95-0.98,1.47c-0.44,0.68-0.73,1.31-0.77,2.04
					c-0.45,0.05-0.98-0.03-1.54-0.3c-0.65-0.31-1.26,0.58-0.6,0.88c0.89,0.42,1.77,0.51,2.54,0.36c0.1,0.03,0.21,0.03,0.3,0.02
					c0.33-0.04,0.67-0.05,1-0.07c-0.02,0.28-0.13,0.55-0.32,0.79c-0.4,0.57,0.57,1.12,0.96,0.55c0.35-0.5,0.49-0.99,0.48-1.54
					c0.02,0,0.03,0.01,0.05,0.01c1.09,0.15,1.89-0.49,2.46-1.26c0.22-0.24,0.42-0.54,0.58-0.92C66.56,25.16,65.6,24.76,65.3,25.28z"
					/>
			</g>
			<g>
				<path fill="#E8E7BF" d="M135.04,13.8c0.31,1.26-2.03,2.83-5.25,3.52c-3.21,0.68-6.07,0.21-6.39-1.05
					c-0.31-1.26,2.03-2.83,5.25-3.52S134.73,12.54,135.04,13.8z"/>
				<path fill="#E8E7BF" d="M136.16,10.49c0.47,1.89-1.25,3.87-3.85,4.42c-2.6,0.55-5.09-0.53-5.56-2.42s1.25-3.87,3.85-4.42
					C133.2,7.52,135.69,8.6,136.16,10.49z"/>
				<path fill="#E8E7BF" d="M137.48,15.77c0.55,2.19-0.25,4.23-1.78,4.56s-3.21-1.19-3.76-3.38c-0.55-2.19,0.25-4.23,1.78-4.56
					C135.25,12.07,136.93,13.58,137.48,15.77z"/>
				<path fill="#E8E7BF" d="M127.82,16.79c0.46,1.85,1.89,3.12,3.19,2.85c1.3-0.28,1.98-2,1.52-3.85c-0.46-1.85-1.89-3.12-3.19-2.85
					C128.04,13.22,127.36,14.94,127.82,16.79z"/>
				<path fill="#A08047" d="M131.57,18.03c-0.23,0.09-0.44,0.11-0.65,0.06c0.38-1.3,1.06-3.27-0.86-3.6
					c-0.27-0.05-0.65,0.04-0.71,0.34c-0.12,0.56-0.14,1.14-0.36,1.68c-0.26,0.63,0.83,0.93,1.08,0.31c0.08-0.2,0.13-0.41,0.17-0.61
					c0,0.62-0.38,1.48-0.51,1.93c-0.22-0.15-0.41-0.33-0.58-0.56c-0.41-0.56-1.27-0.13-1,0.5c0.35,0.8,0.96,1.27,1.66,1.42
					c0.04,0.05,0.08,0.09,0.14,0.12l0.34,0.19c0.24,0.14,0.54,0.08,0.72-0.11c0.16,0.03,0.33,0.06,0.5,0.07
					c0.51,0.05,0.68-0.44,0.49-0.77c0.07-0.05,0.14-0.1,0.21-0.15C132.73,18.47,132.13,17.76,131.57,18.03z"/>
			</g>
			<g>
				<path fill="#E8E7BF" d="M140.81,47.36"/>
			</g>
			<g>
				<path fill="#E8E7BF" d="M131.89,30.75c0.84,3.36-1.41,6.71-5.04,7.47c-3.62,0.77-7.24-1.33-8.07-4.69
					c-0.84-3.36,1.41-6.71,5.03-7.47S131.05,27.39,131.89,30.75z"/>
				<path fill="#E8E7BF" d="M119.05,38.5c0.51,2.03,2.59,3.32,4.66,2.88c2.06-0.44,3.33-2.44,2.82-4.47
					c-0.51-2.03-2.59-3.32-4.66-2.88C119.81,34.47,118.54,36.47,119.05,38.5z"/>
				<path fill="#E8E7BF" d="M117.02,35.06c0.39,1.54,2.31,2.45,4.3,2.02c1.99-0.42,3.29-2.01,2.9-3.55
					c-0.38-1.54-2.31-2.45-4.3-2.02C117.94,31.93,116.64,33.52,117.02,35.06z"/>
				<path fill="#E8E7BF" d="M136.5,32.84c0.53,2.12-0.44,4.14-2.18,4.51c-1.73,0.37-3.57-1.05-4.1-3.18
					c-0.53-2.12,0.44-4.14,2.18-4.51C134.13,29.29,135.97,30.72,136.5,32.84z"/>
				<path fill="#E8E7BF" d="M133.21,36.03c0.58,2.31-0.73,4.56-2.92,5.02c-2.19,0.47-4.44-1.03-5.02-3.34
					c-0.58-2.31,0.73-4.56,2.92-5.02S132.63,33.72,133.21,36.03z"/>
				<path fill="#E8E7BF" d="M126.14,31.43c-4.5,0.95-2.89,7.38,1.61,6.42C132.81,36.78,131.2,30.36,126.14,31.43z"/>
			</g>
			<g>
				<path fill="#E8E7BF" d="M134.02,42.31c-0.76-3.03-4.48-4.83-8.31-4.02c-3.83,0.81-6.32,3.93-5.56,6.96"/>
				<path fill="#E8E7BF" d="M125.71,38.29c0.61,2.43,2.36,4.13,3.91,3.8s2.32-2.56,1.71-4.99c-0.61-2.43-2.36-4.13-3.91-3.8
					C125.88,33.63,125.11,35.86,125.71,38.29z"/>
				<path fill="#E8E7BF" d="M129.56,41.83c0.32,1.26,1.82,2.02,3.36,1.69c1.54-0.33,2.54-1.61,2.22-2.87
					c-0.31-1.26-1.82-2.02-3.36-1.69C130.24,39.28,129.25,40.57,129.56,41.83z"/>
				<path fill="#E8E7BF" d="M137.33,44.72c-0.56-2.24-3.14-3.6-5.76-3.05c-2.62,0.56-4.3,2.82-3.74,5.06"/>
				<path fill="#E8E7BF" d="M128.41,39.32c-4.5,0.95-2.89,7.38,1.6,6.42C134.79,44.72,133.19,38.3,128.41,39.32z"/>
			</g>
			<g>
				<path fill="#E8E7BF" d="M113.56,47.27c3.21-0.68,6.07-0.21,6.39,1.05"/>
				<path fill="#E8E7BF" d="M111.65,47.01c-0.47-1.89,1.25-3.87,3.85-4.42c2.6-0.55,5.09,0.53,5.56,2.42"/>
				<path fill="#E8E7BF" d="M118.63,46.91"/>
				<path fill="#E8E7BF" d="M114.24,47.46"/>
			</g>
			<g>
				<path fill="#E8E7BF" d="M152.73,29.03c0.76,3.04-1.31,6.06-4.61,6.77c-3.31,0.7-6.6-1.19-7.36-4.23
					c-0.76-3.04,1.31-6.06,4.61-6.77C148.68,24.1,151.98,25.99,152.73,29.03z"/>
				<path fill="#E8E7BF" d="M155.74,35.4c0.53,2.12-0.91,4.23-3.22,4.72c-2.31,0.49-4.6-0.83-5.13-2.95s0.91-4.23,3.22-4.72
					S155.21,33.28,155.74,35.4z"/>
				<path fill="#E8E7BF" d="M140.39,38.73c0.51,2.04,2.72,3.31,4.94,2.84s3.61-2.5,3.1-4.54c-0.51-2.04-2.72-3.31-4.94-2.84
					S139.88,36.69,140.39,38.73z"/>
				<path fill="#E8E7BF" d="M132.86,35.15c0.66,2.64,3.52,4.28,6.39,3.67c2.87-0.61,4.67-3.24,4.01-5.88
					c-0.66-2.64-3.52-4.28-6.39-3.67C134,29.88,132.2,32.51,132.86,35.15z"/>
				<path fill="#E8E7BF" d="M146.94,27.94c-1.37,0.29-2.45,1.2-2.96,2.33c-0.8-0.32-1.71-0.42-2.61-0.23
					c-2.25,0.48-3.71,2.6-3.19,4.67c0.52,2.07,2.83,3.4,5.08,2.92c1.37-0.29,2.45-1.2,2.96-2.33c0.8,0.32,1.71,0.42,2.61,0.23
					c2.25-0.48,3.71-2.6,3.19-4.67C151.51,28.78,149.2,27.46,146.94,27.94z"/>
			</g>
			<g>
				<path fill="#E8E7BF" d="M82.41,29.59c0.85,3.41-1.48,6.81-5.2,7.6c-3.72,0.79-7.43-1.33-8.28-4.74c-0.85-3.41,1.48-6.81,5.2-7.6
					S81.56,26.19,82.41,29.59z"/>
				<path fill="#E8E7BF" d="M73.13,30.58c0.49,1.96-0.85,3.92-2.99,4.37c-2.14,0.45-4.27-0.77-4.76-2.73
					c-0.49-1.96,0.85-3.92,2.99-4.37C70.51,27.4,72.64,28.62,73.13,30.58z"/>
				<path fill="#E8E7BF" d="M83,37.39c0.49,1.96-0.85,3.92-2.99,4.37c-2.14,0.45-4.27-0.77-4.76-2.73
					c-0.49-1.96,0.85-3.92,2.99-4.37C80.37,34.21,82.51,35.43,83,37.39z"/>
				<path fill="#E8E7BF" d="M66.22,37.92c0.77,3.08,4.12,5,7.49,4.28c3.36-0.71,5.47-3.79,4.7-6.87c-0.77-3.08-4.12-5-7.49-4.28
					C67.55,31.77,65.45,34.84,66.22,37.92z"/>
				<path fill="#E8E7BF" d="M75.11,27.32c-4.5,0.95-2.89,7.37,1.6,6.42C81.21,32.78,79.61,26.36,75.11,27.32z"/>
			</g>
			<g>
				<path fill="#E8E7BF" d="M59.93,35.34c0.84,3.36-1.41,6.71-5.03,7.47c-3.62,0.77-7.24-1.33-8.08-4.69
					c-0.84-3.36,1.41-6.71,5.03-7.47C55.48,29.88,59.09,31.98,59.93,35.34z"/>
				<path fill="#E8E7BF" d="M47.09,43.09c0.51,2.03,2.59,3.32,4.66,2.88c2.06-0.44,3.33-2.44,2.82-4.47
					c-0.51-2.03-2.59-3.32-4.66-2.88C47.85,39.06,46.58,41.06,47.09,43.09z"/>
				<path fill="#E8E7BF" d="M45.07,39.65c0.38,1.54,2.31,2.45,4.3,2.02c1.99-0.42,3.29-2.01,2.9-3.55c-0.39-1.54-2.31-2.45-4.3-2.02
					C45.98,36.52,44.68,38.11,45.07,39.65z"/>
				<path fill="#E8E7BF" d="M64.54,37.43c0.53,2.12-0.44,4.14-2.18,4.51c-1.73,0.37-3.57-1.05-4.1-3.18
					c-0.53-2.12,0.44-4.14,2.18-4.51C62.17,33.89,64.01,35.31,64.54,37.43z"/>
				<path fill="#E8E7BF" d="M61.25,40.62c0.58,2.31-0.73,4.56-2.92,5.02s-4.44-1.03-5.01-3.34c-0.58-2.31,0.73-4.56,2.92-5.02
					C58.43,36.82,60.67,38.31,61.25,40.62z"/>
				<path fill="#E8E7BF" d="M54.21,36.02c-4.21,0.89-2.61,7.31,1.6,6.42C60.59,41.43,58.98,35.01,54.21,36.02z"/>
			</g>
			<g>
				<path fill="#E8E7BF" d="M154.56,48.27c-0.76-3.03-4.48-4.83-8.31-4.02"/>
				<path fill="#E8E7BF" d="M146.26,44.25c0.61,2.43,2.36,4.13,3.91,3.8c1.55-0.33,2.32-2.56,1.71-4.99
					c-0.61-2.43-2.36-4.13-3.91-3.8C146.42,39.59,145.65,41.82,146.26,44.25z"/>
				<path fill="#E8E7BF" d="M155.69,46.61c-0.31-1.26-1.82-2.02-3.36-1.69c-1.54,0.33-2.54,1.61-2.22,2.87"/>
				<path fill="#E8E7BF" d="M152.11,47.63"/>
				<path fill="#E8E7BF" d="M149.12,45.24"/>
			</g>
			<g>
				<path fill="#E8E7BF" d="M109.16,33.93c0.66,2.64-1.16,5.27-4.07,5.89c-2.91,0.62-5.8-1.02-6.45-3.66
					c-0.66-2.64,1.16-5.27,4.07-5.89S108.5,31.29,109.16,33.93z"/>
				<path fill="#E8E7BF" d="M113.77,39.13c0.45,1.82-0.79,3.64-2.78,4.06c-1.99,0.42-3.97-0.71-4.42-2.53
					c-0.46-1.82,0.79-3.64,2.78-4.06C111.33,36.18,113.31,37.31,113.77,39.13z"/>
				<path fill="#E8E7BF" d="M109.85,29.18c-0.42-1.69-1.62-2.88-2.67-2.66c-1.05,0.22-1.57,1.78-1.14,3.47
					c0.42,1.69,1.62,2.88,2.67,2.66C109.76,32.42,110.27,30.87,109.85,29.18z"/>
				<path fill="#E8E7BF" d="M98.6,41.46c0.34,1.35,1.73,2.21,3.1,1.92c1.38-0.29,2.22-1.63,1.88-2.98c-0.34-1.35-1.73-2.21-3.1-1.92
					S98.26,40.11,98.6,41.46z"/>
				<path fill="#E8E7BF" d="M102.74,30.4c0.37,1.47-0.88,2.99-2.78,3.39c-1.9,0.4-3.74-0.46-4.11-1.93
					c-0.37-1.47,0.88-2.99,2.78-3.39C100.53,28.06,102.37,28.93,102.74,30.4z"/>
				<path fill="#E8E7BF" d="M96.25,37.51c0.38,1.54,2.27,2.45,4.2,2.04s3.2-1.99,2.81-3.53s-2.27-2.45-4.21-2.04
					C97.12,34.39,95.86,35.97,96.25,37.51z"/>
				<path fill="#E8E7BF" d="M106.43,30.28c-0.28-1.12-1.3-1.86-2.28-1.65c-0.98,0.21-1.54,1.28-1.26,2.4
					c0.28,1.12,1.3,1.86,2.28,1.65C106.15,32.47,106.71,31.4,106.43,30.28z"/>
				<path fill="#E8E7BF" d="M112.5,34.06c0.38,1.54-0.79,3.1-2.62,3.49s-3.63-0.54-4.01-2.08c-0.38-1.54,0.79-3.1,2.62-3.49
					C110.32,31.59,112.11,32.52,112.5,34.06z"/>
				<path fill="#E8E7BF" d="M109.59,33.9c-0.25-1.76-1.83-3.37-4.26-2.86c-0.15,0.03-0.29,0.07-0.42,0.11
					c-0.74-0.59-1.76-0.89-3.01-0.63c-4.52,0.96-2.93,7.35,1.57,6.43c0.57,1.37,2.01,2.42,4.03,1.99
					C110.32,38.35,110.76,35.64,109.59,33.9z"/>
				<path fill="#A08047" d="M106.41,32.72c-0.25-0.42-0.87-0.32-1.04,0.09c-0.17,0.39-0.28,0.92-0.53,1.32c-0.05,0-0.11,0-0.16,0.02
					c-0.18-0.07-0.4-0.07-0.6,0.08c-0.21,0.16-0.49,0-0.66-0.14c-0.24-0.18-0.56-0.23-0.8-0.02c-0.21,0.18-0.26,0.55-0.03,0.74
					c0.31,0.24,0.66,0.42,1.02,0.49c-0.17,0.26-0.3,0.54-0.36,0.85c-0.06,0.28,0.05,0.56,0.37,0.65c0.25,0.07,0.59-0.04,0.69-0.28
					c0.11,0.01,0.22-0.01,0.32-0.06c0.09-0.05,0.18-0.1,0.27-0.15c0.28,0.14,0.58,0.22,0.91,0.17c0.5-0.09,0.8-0.46,0.95-0.88
					C107.07,34.72,106.88,33.51,106.41,32.72z"/>
			</g>
			<g>
				<path fill="#E8E7BF" d="M119.13,39.6c0.76,3.03-1.6,6.12-5.27,6.9c-3.67,0.78-7.26-1.05-8.02-4.08c-0.76-3.03,1.6-6.12,5.28-6.9
					C114.78,34.73,118.37,36.56,119.13,39.6z"/>
				<path fill="#E8E7BF" d="M110.58,33.4c0.59,2.38-1.03,4.76-3.63,5.31c-2.6,0.55-5.19-0.93-5.79-3.31
					c-0.59-2.38,1.03-4.76,3.63-5.31C107.4,29.54,109.99,31.02,110.58,33.4z"/>
				<path fill="#E8E7BF" d="M111.77,35.82c0.55,2.19,2.92,3.56,5.29,3.06s3.85-2.69,3.3-4.88c-0.55-2.19-2.92-3.56-5.29-3.06
					C112.7,31.44,111.22,33.63,111.77,35.82z"/>
				<path fill="#E8E7BF" d="M112.08,39.4c-0.54-2.15-3.58-3.33-6.79-2.65c-3.21,0.68-5.38,2.97-4.85,5.12
					c0.54,2.15,3.58,3.33,6.79,2.65C110.45,43.84,112.62,41.55,112.08,39.4z"/>
				<path fill="#E8E7BF" d="M109.64,33.47c0.37,1.47,1.45,2.5,2.41,2.29c0.96-0.21,1.45-1.56,1.08-3.03
					c-0.37-1.47-1.45-2.5-2.41-2.29C109.76,30.64,109.28,32,109.64,33.47z"/>
				<path fill="#E8E7BF" d="M108.57,32.14c-3.93,0.83-2.33,7.26,1.61,6.42C115.23,37.49,113.63,31.07,108.57,32.14z"/>
				<path fill="#A08047" d="M113.35,33.95c-0.14,0.24-0.28,0.48-0.44,0.71c-0.5,0.51-1.2,0.46-1.73,0.17
					c0.2-0.63,0.18-1.36-0.13-2.14c-0.11-0.29-0.48-0.54-0.82-0.34c-0.71,0.43-0.99,0.95-0.98,1.47c-0.44,0.68-0.73,1.31-0.77,2.04
					c-0.46,0.05-0.98-0.03-1.54-0.3c-0.65-0.31-1.26,0.58-0.6,0.88c0.89,0.42,1.77,0.51,2.54,0.36c0.1,0.03,0.21,0.03,0.3,0.02
					c0.33-0.04,0.67-0.05,1-0.07c-0.02,0.28-0.13,0.55-0.32,0.79c-0.4,0.57,0.57,1.12,0.96,0.55c0.35-0.5,0.49-0.99,0.48-1.54
					c0.02,0,0.03,0.01,0.05,0.01c1.09,0.15,1.89-0.49,2.46-1.26c0.22-0.24,0.42-0.54,0.58-0.92
					C114.61,33.83,113.65,33.42,113.35,33.95z"/>
			</g>
			<g>
				<path fill="#E8E7BF" d="M70.17,38.95c0.31,1.26-2.03,2.83-5.25,3.52s-6.07,0.21-6.39-1.05c-0.31-1.26,2.03-2.83,5.25-3.52
					C66.99,37.22,69.85,37.69,70.17,38.95z"/>
				<path fill="#E8E7BF" d="M71.28,35.65c0.47,1.89-1.25,3.87-3.85,4.42c-2.6,0.55-5.09-0.53-5.56-2.42s1.25-3.87,3.85-4.42
					C68.32,32.67,70.81,33.76,71.28,35.65z"/>
				<path fill="#E8E7BF" d="M72.6,40.93c0.55,2.19-0.25,4.23-1.78,4.56c-1.53,0.32-3.21-1.19-3.76-3.38s0.25-4.23,1.78-4.56
					S72.06,38.73,72.6,40.93z"/>
				<path fill="#E8E7BF" d="M62.94,41.94c0.46,1.85,1.89,3.12,3.19,2.85c1.3-0.28,1.98-2,1.52-3.85c-0.46-1.85-1.89-3.12-3.19-2.85
					C63.16,38.37,62.48,40.09,62.94,41.94z"/>
				<path fill="#A08047" d="M66.69,43.18c-0.23,0.09-0.44,0.11-0.65,0.06c0.38-1.3,1.06-3.27-0.86-3.6
					c-0.28-0.05-0.65,0.04-0.71,0.34c-0.12,0.56-0.14,1.14-0.36,1.68c-0.26,0.63,0.83,0.93,1.08,0.31c0.08-0.2,0.13-0.41,0.18-0.61
					c0,0.62-0.38,1.48-0.51,1.93c-0.21-0.15-0.41-0.33-0.58-0.56c-0.41-0.56-1.27-0.13-1,0.5c0.35,0.8,0.96,1.27,1.66,1.42
					c0.04,0.05,0.08,0.09,0.14,0.12l0.34,0.19c0.24,0.14,0.54,0.08,0.72-0.11c0.16,0.03,0.33,0.06,0.5,0.07
					c0.51,0.05,0.68-0.44,0.49-0.77c0.07-0.05,0.14-0.1,0.21-0.15C67.86,43.62,67.25,42.91,66.69,43.18z"/>
			</g>
			<g>
				<path fill="#E8E7BF" d="M123.33,26.64c-3.04-2.26-3.5-6.36-1.02-9.15s6.95-3.22,9.99-0.96c3.04,2.26,3.5,6.35,1.02,9.15
					C130.84,28.47,126.37,28.9,123.33,26.64z"/>
				<path fill="#E8E7BF" d="M133.93,21.55c-2.55-1.9-2.94-5.34-0.86-7.68c2.08-2.35,5.84-2.71,8.39-0.81
					c2.55,1.9,2.94,5.34,0.86,7.68C140.25,23.08,136.49,23.45,133.93,21.55z"/>
				<path fill="#E8E7BF" d="M122.85,15.77c-2.84-2.11-6.08-2.76-7.23-1.46c-1.16,1.3,0.21,4.07,3.05,6.18
					c2.84,2.11,6.08,2.76,7.23,1.46C127.05,20.65,125.69,17.88,122.85,15.77z"/>
				<path fill="#E8E7BF" d="M127.8,29.97c2.11,1.57,4.82,1.7,6.06,0.31c1.24-1.4,0.53-3.8-1.58-5.36c-2.11-1.57-4.82-1.71-6.06-0.31
					S125.7,28.4,127.8,29.97z"/>
				<path fill="#E8E7BF" d="M119.13,28.07c-1.34-0.99-1.24-3.14,0.23-4.79s3.74-2.18,5.08-1.19c1.34,0.99,1.24,3.14-0.23,4.79
					C122.74,28.53,120.47,29.07,119.13,28.07z"/>
				<path fill="#E8E7BF" d="M126.24,25.88c1.31,1.46,3.88,2.03,5.57,0.13c1.1-1.24,1-2.59,0.3-3.63c0.34-0.2,0.66-0.47,0.96-0.81
					c2.55-2.87-1.56-6.45-4.52-4.97c-1.38-0.79-3.25-0.83-4.58,0.67c-0.79,0.89-0.95,1.83-0.73,2.68c-0.27,0.18-0.54,0.4-0.78,0.67
					C120.05,23.32,123.35,26.59,126.24,25.88z"/>
			</g>
			<g>
				<path fill="#E8E7BF" d="M86.65,45.47c-2.96-2.2-3.41-6.19-1-8.9c2.41-2.72,6.77-3.14,9.73-0.94c2.96,2.2,3.41,6.19,1,8.9
					C93.96,47.25,89.61,47.67,86.65,45.47z"/>
				<path fill="#E8E7BF" d="M93.31,39.46c-1.7-1.27-1.96-3.56-0.57-5.12c1.39-1.56,3.89-1.81,5.6-0.54c1.7,1.27,1.96,3.56,0.57,5.12
					S95.02,40.73,93.31,39.46z"/>
				<path fill="#E8E7BF" d="M80.95,39.67c-1.7-1.27-1.96-3.56-0.57-5.12c1.39-1.56,3.89-1.81,5.6-0.54c1.7,1.27,1.96,3.56,0.57,5.12
					C85.16,40.69,82.65,40.94,80.95,39.67z"/>
				<path fill="#E8E7BF" d="M93.85,29.79c-2.68-1.99-6.61-1.61-8.79,0.85c-2.18,2.46-1.78,6.06,0.9,8.05
					c2.68,1.99,6.61,1.61,8.79-0.85S96.52,31.78,93.85,29.79z"/>
				<path fill="#E8E7BF" d="M93.99,43.1c2.93-3.3-2.65-7.45-5.58-4.15C85.48,42.25,91.06,46.4,93.99,43.1z"/>
			</g>
			<g>
				<path fill="#E8E7BF" d="M89.49,15.82c-2.29-1.7-2.62-4.8-0.74-6.93c1.88-2.12,5.27-2.46,7.56-0.76c2.29,1.7,2.62,4.8,0.74,6.93
					C95.16,17.18,91.78,17.52,89.49,15.82z"/>
				<path fill="#E8E7BF" d="M82.35,14.32c-1.58-1.18-1.82-3.31-0.53-4.76c1.29-1.45,3.61-1.68,5.2-0.5
					c1.58,1.18,1.82,3.31,0.53,4.76C86.26,15.27,83.93,15.5,82.35,14.32z"/>
				<path fill="#E8E7BF" d="M92.13,19.95c1.47,1.09,3.22,1.35,3.9,0.58c0.68-0.77,0.04-2.28-1.43-3.37
					c-1.47-1.09-3.22-1.35-3.9-0.58C90.02,17.35,90.66,18.85,92.13,19.95z"/>
				<path fill="#E8E7BF" d="M92.77,3.94c-1.18-0.87-2.85-0.77-3.74,0.24c-0.89,1.01-0.66,2.53,0.52,3.4
					c1.18,0.87,2.85,0.77,3.74-0.24C94.18,6.34,93.95,4.82,92.77,3.94z"/>
				<path fill="#E8E7BF" d="M96.94,14.98c-1.28-0.95-1.31-2.85-0.08-4.24c1.23-1.39,3.27-1.75,4.55-0.8
					c1.28,0.95,1.31,2.85,0.08,4.24C100.25,15.57,98.21,15.93,96.94,14.98z"/>
				<path fill="#E8E7BF" d="M97.28,5.73c-1.34-0.99-3.44-0.65-4.7,0.76c-1.26,1.42-1.19,3.37,0.15,4.36
					c1.34,0.99,3.44,0.65,4.7-0.76S98.62,6.72,97.28,5.73z"/>
				<path fill="#E8E7BF" d="M94.09,17.15c0.97,0.72,2.28,0.73,2.91,0.02s0.36-1.88-0.62-2.6c-0.97-0.72-2.28-0.73-2.91-0.02
					S93.12,16.43,94.09,17.15z"/>
				<path fill="#E8E7BF" d="M86.76,17.59c-1.34-0.99-1.46-2.88-0.28-4.22c1.19-1.34,3.23-1.61,4.57-0.62
					c1.34,0.99,1.46,2.88,0.28,4.22C90.14,18.31,88.1,18.59,86.76,17.59z"/>
				<path fill="#E8E7BF" d="M89.16,16.08c1.37,1.24,3.71,1.62,5.29-0.16c0.09-0.11,0.18-0.22,0.26-0.32
					c0.98,0.05,1.99-0.29,2.8-1.21c2.92-3.3-2.63-7.43-5.56-4.17c-1.37-0.76-3.21-0.78-4.52,0.7C85.6,12.99,87.08,15.38,89.16,16.08
					z"/>
				<path fill="#A08047" d="M92.47,15.22c0.48,0.19,0.9-0.24,0.76-0.66c-0.13-0.4-0.39-0.88-0.47-1.34c0.04-0.03,0.08-0.06,0.11-0.1
					c0.19-0.04,0.37-0.17,0.42-0.4c0.06-0.24,0.39-0.27,0.62-0.26c0.31,0.01,0.6-0.13,0.65-0.44c0.04-0.26-0.16-0.58-0.47-0.59
					c-0.41-0.02-0.81,0.04-1.13,0.19c-0.05-0.3-0.13-0.6-0.29-0.87c-0.14-0.25-0.42-0.41-0.73-0.3c-0.24,0.08-0.44,0.37-0.36,0.61
					c-0.09,0.05-0.17,0.13-0.21,0.23c-0.04,0.09-0.08,0.18-0.11,0.27c-0.31,0.05-0.61,0.15-0.83,0.38
					c-0.34,0.35-0.32,0.81-0.16,1.23C90.6,14.02,91.57,14.86,92.47,15.22z"/>
			</g>
			<g>
				<path fill="#E8E7BF" d="M60.77,47.72"/>
				<path fill="#E8E7BF" d="M65.4,45.12c-1.87-1.39-5.06-0.61-7.15,1.74"/>
			</g>
			<g>
				<path fill="#E8E7BF" d="M56.26,47.82c-1.1-0.81-0.3-3.38,1.78-5.72s4.65-3.59,5.75-2.77c1.09,0.81,0.3,3.38-1.78,5.72
					C59.93,47.39,57.36,48.63,56.26,47.82z"/>
				<path fill="#E8E7BF" d="M57.68,45.4c1.68-1.9,4.38-2.45,6.02-1.23"/>
				<path fill="#E8E7BF" d="M53.01,47.64c-1.91-1.42-2.65-3.47-1.66-4.59s3.34-0.87,5.25,0.54c1.91,1.42,2.65,3.47,1.66,4.59
					C57.27,49.3,54.92,49.06,53.01,47.64z"/>
				<path fill="#E8E7BF" d="M59.96,41.4c-1.61-1.19-3.59-1.39-4.44-0.44c-0.84,0.95-0.22,2.69,1.39,3.88
					c1.61,1.19,3.59,1.39,4.43,0.44C62.19,44.33,61.57,42.59,59.96,41.4z"/>
				<path fill="#A08047" d="M56.17,42.54c0.12-0.2,0.28-0.33,0.47-0.41c0.57,1.24,1.36,3.17,3.1,2.35c0.25-0.12,0.48-0.4,0.33-0.67
					c-0.28-0.51-0.66-0.97-0.84-1.52c-0.22-0.64-1.28-0.27-1.06,0.37c0.07,0.21,0.17,0.39,0.27,0.58c-0.42-0.49-0.69-1.38-0.89-1.81
					c0.27,0,0.55,0.03,0.83,0.11c0.7,0.21,1.09-0.62,0.46-0.95c-0.82-0.43-1.61-0.46-2.27-0.18c-0.06-0.01-0.13-0.02-0.19-0.02
					l-0.4,0.04c-0.28,0.03-0.48,0.24-0.5,0.49c-0.15,0.07-0.3,0.14-0.44,0.22c-0.44,0.24-0.25,0.73,0.12,0.88
					c-0.02,0.08-0.05,0.16-0.07,0.24C54.95,42.84,55.91,43.07,56.17,42.54z"/>
			</g>
			<g>
				<path fill="#E8E7BF" d="M81.93,47.13c-0.85-3.41,1.48-6.81,5.2-7.6c3.72-0.79,7.43,1.33,8.28,4.74"/>
				<path fill="#E8E7BF" d="M78.38,46.91c-0.49-1.96,0.85-3.92,2.99-4.37c2.14-0.45,4.27,0.77,4.76,2.73"/>
				<path fill="#E8E7BF" d="M83.92,45.73"/>
				<path fill="#E8E7BF" d="M87.96,42.03c-4.5,0.95-2.89,7.37,1.6,6.42C94.34,47.44,92.74,41.01,87.96,42.03z"/>
			</g>
		</g>
		<g>
			<g>
				<path fill="#FF0000" d="M75,178H57V31.65c0,0,5.95,7.5,9,7.5c3.05,0,9-7.5,9-7.5V178z"/>
				<path fill="#FFFFFF" d="M94,178H75V31.65c0,0,6.43,7.5,9.5,7.5c3.07,0,9.5-7.5,9.5-7.5V178z"/>
				<path fill="#FFFFFF" d="M130,178h-18V31.65c0,0,5.95,7.5,9,7.5c3.05,0,9-7.5,9-7.5V178z"/>
				<path fill="#FFFFFF" d="M167,178h-19V31.65c0,0,6.43,7.5,9.5,7.5s9.5-7.5,9.5-7.5V178z"/>
				<path fill="#FF0000" d="M112,178H94V31.65c0,0,5.95,7.5,9,7.5c3.05,0,9-7.5,9-7.5V178z"/>
				<path fill="#FF0000" d="M148,178h-18V31.65c0,0,5.95,7.5,9,7.5s9-7.5,9-7.5V178z"/>
			</g>
			<g>
				<path fill="#FF0000" d="M39,159.76l-7-5.63V8.95c0,0,2.46,9.36,3.5,10.31c1.04,0.95,3.5-4.68,3.5-4.68V159.76z"/>
				<path fill="#FFFFFF" d="M45,165.53l-6-5.77V14.57c0,0,1.95,9.43,3,10.38c1.05,0.95,3-4.61,3-4.61V165.53z"/>
				<path fill="#FFFFFF" d="M57,176.78l-6-5.63V25.97c0,0,1.96,9.36,3,10.31c1.04,0.95,3-4.68,3-4.68V176.78z"/>
				<path fill="#FF0000" d="M51,171.16l-6-5.63V20.34c0,0,1.96,9.36,3,10.31s3-4.68,3-4.68V171.16z"/>
			</g>
		</g>
	</g>
</g>
</svg>
