<?xml version="1.0" encoding="utf-8"?>
<!-- Generator: Adobe Illustrator 16.0.0, SVG Export Plug-In . SVG Version: 6.00 Build 0)  -->
<svg version="1.2" baseProfile="tiny" id="Layer_1" xmlns="http://www.w3.org/2000/svg" xmlns:xlink="http://www.w3.org/1999/xlink"
	 x="0px" y="0px" width="30px" height="30px" viewBox="0 0 30 30" xml:space="preserve">
<g>
	<linearGradient id="SVGID_1_" gradientUnits="userSpaceOnUse" x1="15.5005" y1="15" x2="15.5005" y2="13">
		<stop  offset="0" style="stop-color:#FFFFFF"/>
		<stop  offset="0.2" style="stop-color:#FAFAFA"/>
		<stop  offset="0.288" style="stop-color:#E6E6E6"/>
		<stop  offset="0.468" style="stop-color:#B3B3B3"/>
		<stop  offset="0.7247" style="stop-color:#606060"/>
		<stop  offset="1" style="stop-color:#000000"/>
	</linearGradient>
	<path fill="url(#SVGID_1_)" d="M9,15c4.33,0,8.67,0,13,0c0.97,0,0.97-2,0-2c-4.33,0-8.67,0-13,0C8.03,13,8.03,15,9,15L9,15z"/>
	<linearGradient id="SVGID_2_" gradientUnits="userSpaceOnUse" x1="15.5005" y1="21" x2="15.5005" y2="19">
		<stop  offset="0" style="stop-color:#FFFFFF"/>
		<stop  offset="0.2" style="stop-color:#FAFAFA"/>
		<stop  offset="0.288" style="stop-color:#E6E6E6"/>
		<stop  offset="0.468" style="stop-color:#B3B3B3"/>
		<stop  offset="0.7247" style="stop-color:#606060"/>
		<stop  offset="1" style="stop-color:#000000"/>
	</linearGradient>
	<path fill="url(#SVGID_2_)" d="M9,21c4.33,0,8.67,0,13,0c0.97,0,0.97-2,0-2c-4.33,0-8.67,0-13,0C8.03,19,8.03,21,9,21L9,21z"/>
	<linearGradient id="SVGID_3_" gradientUnits="userSpaceOnUse" x1="15.5005" y1="10" x2="15.5005" y2="8">
		<stop  offset="0" style="stop-color:#FFFFFF"/>
		<stop  offset="0.2" style="stop-color:#FAFAFA"/>
		<stop  offset="0.288" style="stop-color:#E6E6E6"/>
		<stop  offset="0.468" style="stop-color:#B3B3B3"/>
		<stop  offset="0.7247" style="stop-color:#606060"/>
		<stop  offset="1" style="stop-color:#000000"/>
	</linearGradient>
	<path fill="url(#SVGID_3_)" d="M9,10c4.33,0,8.67,0,13,0c0.97,0,0.97-2,0-2c-4.33,0-8.67,0-13,0C8.03,8,8.03,10,9,10L9,10z"/>
</g>
</svg>
