<?xml version="1.0" encoding="utf-8"?>
<!-- Generator: Adobe Illustrator 16.0.0, SVG Export Plug-In . SVG Version: 6.00 Build 0)  -->
<svg version="1.2" baseProfile="tiny" xmlns="http://www.w3.org/2000/svg" xmlns:xlink="http://www.w3.org/1999/xlink" x="0px"
	 y="0px" width="320.33px" height="200px" viewBox="0 0 320.33 200" xml:space="preserve">
<g id="Layer_2">
</g>
<g id="Layer_1">
	<g>
		<g>
			
				<ellipse transform="matrix(0.4539 -0.891 0.891 0.4539 -28.4069 311.6217)" fill="#E8E7BF" cx="240.04" cy="178.99" rx="3.65" ry="2.71"/>
			
				<ellipse transform="matrix(0.4539 -0.8911 0.8911 0.4539 -26.1255 314.9076)" fill="#E8E7BF" cx="243.84" cy="178.77" rx="2.55" ry="1.89"/>
			
				<ellipse transform="matrix(-0.4537 0.8912 -0.8912 -0.4537 514.4196 49.9873)" fill="#E8E7BF" cx="241.89" cy="182.68" rx="2.45" ry="1.82"/>
			
				<ellipse transform="matrix(-0.4541 0.891 -0.891 -0.4541 510.7745 55.7584)" fill="#E8E7BF" cx="238.31" cy="184.36" rx="3.17" ry="2.36"/>
			<path fill="#E8E7BF" d="M239.28,178.09c-0.38,0.75-0.44,1.56-0.22,2.19c-0.39,0.27-0.75,0.66-1,1.15
				c-0.63,1.23-0.39,2.64,0.52,3.1c0.91,0.46,2.19-0.17,2.82-1.4c0.38-0.75,0.44-1.56,0.22-2.19c0.39-0.27,0.75-0.66,1-1.15
				c0.62-1.23,0.38-2.64-0.53-3.1C241.18,176.23,239.9,176.86,239.28,178.09z"/>
		</g>
		<g>
			
				<ellipse transform="matrix(0.8633 -0.5046 0.5046 0.8633 -63.1817 143.3326)" fill="#E8E7BF" cx="233.03" cy="188.31" rx="3.95" ry="3.45"/>
			<path fill="#E8E7BF" d="M230.01,187.42c0.81,1.38,0.18,3.25-1.4,4.18c-1.58,0.93-3.52,0.56-4.33-0.83
				c-0.81-1.38-0.18-3.25,1.4-4.17C227.26,185.67,229.2,186.04,230.01,187.42z"/>
			
				<ellipse transform="matrix(-0.8632 0.5049 -0.5049 -0.8632 535.662 237.2037)" fill="#E8E7BF" cx="235.69" cy="191.19" rx="1.84" ry="3.22"/>
			
				<ellipse transform="matrix(0.8634 -0.5045 0.5045 0.8634 -61.4103 142.9667)" fill="#E8E7BF" cx="233.32" cy="184.9" rx="1.98" ry="2.39"/>
			
				<ellipse transform="matrix(0.8632 -0.5048 0.5048 0.8632 -62.1937 145.1736)" fill="#E8E7BF" cx="236.84" cy="187.37" rx="2.34" ry="1.52"/>
			<path fill="#E8E7BF" d="M234.83,186.29c-0.3-0.96-1.43-1.65-2.71-0.9c-0.83,0.49-1.11,1.22-1.01,1.87
				c-0.21,0.06-0.44,0.15-0.66,0.28c-1.94,1.13-0.77,3.63,1.04,3.29c0.49,0.62,1.4,0.92,2.42,0.33c0.6-0.35,0.9-0.82,0.99-1.3
				c0.18-0.05,0.36-0.13,0.55-0.24C237.27,188.56,236.42,186.34,234.83,186.29z"/>
		</g>
		<g>
			
				<ellipse transform="matrix(0.8633 -0.5048 0.5048 0.8633 -60.2921 148.1702)" fill="#E8E7BF" cx="243.32" cy="185.36" rx="3.85" ry="3.36"/>
			
				<ellipse transform="matrix(0.8631 -0.505 0.505 0.8631 -61.4323 146.7612)" fill="#E8E7BF" cx="240.02" cy="186.71" rx="2.21" ry="1.93"/>
			
				<ellipse transform="matrix(0.863 -0.5051 0.5051 0.863 -61.476 150.1589)" fill="#E8E7BF" cx="246.16" cy="188.44" rx="2.21" ry="1.93"/>
			
				<ellipse transform="matrix(-0.8634 0.5046 -0.5046 -0.8634 546.9166 229.6025)" fill="#E8E7BF" cx="242.37" cy="188.85" rx="3.48" ry="3.04"/>
			<path fill="#E8E7BF" d="M242.46,183.58c-2.23,1.3-0.46,4.32,1.76,3.02C246.46,185.29,244.69,182.27,242.46,183.58z"/>
		</g>
		<g>
			<path fill="#E8E7BF" d="M289.37,178.46c0.92,1.58,0.23,3.7-1.56,4.75c-1.79,1.04-3.98,0.61-4.9-0.97
				c-0.92-1.58-0.23-3.7,1.56-4.75C286.25,176.45,288.45,176.88,289.37,178.46z"/>
			
				<ellipse transform="matrix(-0.8634 0.5045 -0.5045 -0.8634 624.8724 198.1611)" fill="#E8E7BF" cx="285.61" cy="183.67" rx="2.13" ry="2"/>
			
				<ellipse transform="matrix(-0.8635 0.5044 -0.5044 -0.8635 621.1551 196.4866)" fill="#E8E7BF" cx="283.99" cy="182.3" rx="2.05" ry="1.52"/>
			
				<ellipse transform="matrix(0.8631 -0.505 0.505 0.8631 -50.9395 171.3224)" fill="#E8E7BF" cx="290.53" cy="179.62" rx="1.79" ry="2.09"/>
			
				<ellipse transform="matrix(0.8631 -0.505 0.505 0.8631 -52.4129 170.7839)" fill="#E8E7BF" cx="288.87" cy="182.09" rx="2.27" ry="2.28"/>
			<path fill="#E8E7BF" d="M286.5,179.82c-2.18,1.28-0.42,4.29,1.76,3.02C290.63,181.46,288.87,178.44,286.5,179.82z"/>
		</g>
		<g>
			
				<ellipse transform="matrix(-0.8632 0.5048 -0.5048 -0.8632 575.6407 208.3745)" fill="#E8E7BF" cx="259.59" cy="182.17" rx="3.96" ry="2.99"/>
			
				<ellipse transform="matrix(-0.8633 0.5047 -0.5047 -0.8633 573.6949 202.1638)" fill="#E8E7BF" cx="259.47" cy="178.78" rx="1.6" ry="2.39"/>
			
				<ellipse transform="matrix(-0.8633 0.5048 -0.5048 -0.8633 578.9538 202.9998)" fill="#E8E7BF" cx="261.98" cy="179.92" rx="1.59" ry="1.24"/>
			
				<ellipse transform="matrix(-0.8633 0.5048 -0.5048 -0.8633 581.5237 206.8447)" fill="#E8E7BF" cx="262.74" cy="182.19" rx="2.71" ry="2.21"/>
			<path fill="#E8E7BF" d="M259.72,179.59c-2.23,1.3-0.46,4.32,1.76,3.02C263.72,181.3,261.95,178.28,259.72,179.59z"/>
		</g>
		<g>
			
				<ellipse transform="matrix(0.8633 -0.5048 0.5048 0.8633 -54.5119 164.0607)" fill="#E8E7BF" cx="275.54" cy="182.64" rx="3.79" ry="2.99"/>
			
				<ellipse transform="matrix(0.8633 -0.5047 0.5047 0.8633 -53.9936 161.4889)" fill="#E8E7BF" cx="271.14" cy="180.42" rx="2.69" ry="2.34"/>
			
				<ellipse transform="matrix(-0.8632 0.5048 -0.5048 -0.8632 605.5476 193.6722)" fill="#E8E7BF" cx="276.54" cy="178.86" rx="2.45" ry="2.16"/>
			
				<ellipse transform="matrix(0.8633 -0.5046 0.5046 0.8633 -55.4261 162.4696)" fill="#E8E7BF" cx="272.24" cy="183.56" rx="3.32" ry="2.12"/>
			
				<ellipse transform="matrix(-0.8632 0.5049 -0.5049 -0.8632 600.4594 194.8243)" fill="#E8E7BF" cx="273.83" cy="178.77" rx="1" ry="1.45"/>
			<path fill="#E8E7BF" d="M272.38,178.69c-2.18,1.28-0.42,4.29,1.76,3.02C276.51,180.32,274.74,177.3,272.38,178.69z"/>
			<path fill="#A08047" d="M274.98,178.86c-0.04,0.15-0.08,0.3-0.13,0.44c-0.19,0.35-0.56,0.45-0.88,0.4
				c0.01-0.36-0.1-0.73-0.38-1.08c-0.1-0.13-0.33-0.19-0.48-0.03c-0.31,0.34-0.38,0.66-0.3,0.93c-0.13,0.43-0.19,0.8-0.11,1.19
				c-0.23,0.11-0.51,0.16-0.85,0.12c-0.38-0.04-0.57,0.52-0.19,0.56c0.53,0.06,1-0.05,1.38-0.27c0.06,0,0.11-0.02,0.16-0.04
				c0.17-0.08,0.34-0.14,0.51-0.21c0.03,0.15,0.01,0.3-0.05,0.46c-0.13,0.36,0.46,0.47,0.58,0.11c0.11-0.32,0.11-0.6,0.03-0.88
				c0.01,0,0.02,0,0.03,0c0.59-0.12,0.92-0.59,1.11-1.09c0.08-0.16,0.14-0.35,0.17-0.58C275.62,178.57,275.06,178.53,274.98,178.86z
				"/>
		</g>
		<g>
			
				<ellipse transform="matrix(0.8633 -0.5048 0.5048 0.8633 -60.3387 159.646)" fill="#E8E7BF" cx="264.48" cy="191.19" rx="3.32" ry="1.24"/>
			<path fill="#E8E7BF" d="M267.46,187.61c0.52,0.89-0.1,2.22-1.38,2.96c-1.28,0.75-2.74,0.64-3.26-0.25
				c-0.52-0.89,0.1-2.21,1.38-2.96C265.48,186.61,266.94,186.72,267.46,187.61z"/>
			
				<ellipse transform="matrix(0.8632 -0.5048 0.5048 0.8632 -59.7725 161.1744)" fill="#E8E7BF" cx="267.54" cy="190.89" rx="1.58" ry="2.16"/>
			
				<ellipse transform="matrix(-0.8633 0.5047 -0.5047 -0.8633 590.8042 223.2914)" fill="#E8E7BF" cx="265.16" cy="191.67" rx="1.34" ry="1.82"/>
			<path fill="#A08047" d="M266.14,192.31c-0.11,0.09-0.21,0.13-0.33,0.15c0.01-0.74,0.08-1.87-0.97-1.7
				c-0.15,0.02-0.33,0.14-0.32,0.3c0.02,0.31,0.09,0.61,0.05,0.93c-0.05,0.37,0.57,0.33,0.61-0.03c0.01-0.12,0.01-0.23,0-0.35
				c0.09,0.32,0.01,0.83,0.01,1.09c-0.13-0.04-0.26-0.1-0.38-0.19c-0.29-0.21-0.69,0.17-0.45,0.43c0.3,0.35,0.69,0.48,1.07,0.44
				c0.03,0.01,0.06,0.03,0.09,0.04l0.21,0.04c0.14,0.03,0.29-0.06,0.36-0.19c0.09-0.01,0.18-0.03,0.27-0.05
				c0.28-0.06,0.29-0.35,0.15-0.48c0.03-0.04,0.06-0.08,0.09-0.12C266.81,192.33,266.39,192.07,266.14,192.31z"/>
		</g>
		<g>
			
				<ellipse transform="matrix(-0.6276 0.7786 -0.7786 -0.6276 610.3508 90.9623)" fill="#E8E7BF" cx="283.42" cy="191.47" rx="4.02" ry="4.2"/>
			
				<ellipse transform="matrix(-0.6276 0.7785 -0.7785 -0.6276 600.5458 92.5865)" fill="#E8E7BF" cx="278.13" cy="189.92" rx="2.8" ry="2.93"/>
			
				<ellipse transform="matrix(0.6278 -0.7784 0.7784 0.6278 -40.2553 288.1046)" fill="#E8E7BF" cx="281.11" cy="186.14" rx="2.7" ry="2.82"/>
			
				<ellipse transform="matrix(0.6276 -0.7786 0.7786 0.6276 -38.0914 292.0222)" fill="#E8E7BF" cx="286.19" cy="185.83" rx="3.49" ry="3.65"/>
			<path fill="#E8E7BF" d="M284.42,192.92c0.58-0.72,0.71-1.67,0.46-2.53c0.56-0.14,1.09-0.44,1.47-0.91
				c0.95-1.18,0.71-2.99-0.52-3.98c-1.23-0.99-3.05-0.84-4,0.34c-0.58,0.72-0.72,1.67-0.46,2.53c-0.57,0.13-1.09,0.44-1.47,0.91
				c-0.95,1.18-0.71,2.99,0.52,3.98C281.65,194.25,283.47,194.1,284.42,192.92z"/>
		</g>
		<g>
			
				<ellipse transform="matrix(0.8632 -0.5049 0.5049 0.8632 -54.7085 177.4148)" fill="#E8E7BF" cx="299.98" cy="189.64" rx="3.32" ry="1.24"/>
			
				<ellipse transform="matrix(0.8633 -0.5047 0.5047 0.8633 -53.4944 177.3302)" fill="#E8E7BF" cx="300.63" cy="187.42" rx="2.69" ry="1.86"/>
			
				<ellipse transform="matrix(0.8636 -0.5041 0.5041 0.8636 -54.1293 178.5794)" fill="#E8E7BF" cx="303.04" cy="189.35" rx="1.58" ry="2.16"/>
			
				<ellipse transform="matrix(-0.8632 0.5048 -0.5048 -0.8632 656.1613 202.4544)" fill="#E8E7BF" cx="300.65" cy="190.12" rx="1.34" ry="1.82"/>
			<path fill="#A08047" d="M301.63,190.76c-0.11,0.09-0.21,0.14-0.33,0.15c0.01-0.74,0.08-1.87-0.96-1.7
				c-0.15,0.03-0.33,0.14-0.32,0.3c0.02,0.31,0.09,0.61,0.05,0.93c-0.04,0.37,0.57,0.33,0.61-0.04c0.01-0.12,0.01-0.23,0-0.35
				c0.09,0.32,0.01,0.83,0.01,1.09c-0.13-0.04-0.26-0.1-0.38-0.18c-0.3-0.21-0.69,0.16-0.45,0.43c0.3,0.35,0.69,0.48,1.07,0.43
				c0.03,0.02,0.06,0.03,0.09,0.04l0.21,0.04c0.14,0.03,0.29-0.05,0.36-0.18c0.09-0.02,0.18-0.03,0.27-0.05
				c0.27-0.06,0.29-0.35,0.15-0.48c0.03-0.04,0.06-0.07,0.09-0.12C302.31,190.79,301.89,190.53,301.63,190.76z"/>
		</g>
		<g>
			<g>
				<g>
					<path fill="#B22424" d="M47,92V76h128.76c0,0-6.59,5.32-6.59,8s6.59,8,6.59,8H47z"/>
					<path fill="#B2B2B2" d="M47,107V92h128.76c0,0-6.59,4.8-6.59,7.5s6.59,7.5,6.59,7.5H47z"/>
					<path fill="#B2B2B2" d="M47,141v-16h128.76c0,0-6.59,5.32-6.59,8c0,2.68,6.59,8,6.59,8H47z"/>
					<path fill="#B2B2B2" d="M47,172v-17h128.76c0,0-6.59,5.8-6.59,8.5c0,2.7,6.59,8.5,6.59,8.5H47z"/>
					<path fill="#B22424" d="M47,125v-18h128.76c0,0-6.59,6.32-6.59,9s6.59,9,6.59,9H47z"/>
					<path fill="#B22424" d="M47,155v-14h128.76c0,0-6.59,4.32-6.59,7s6.59,7,6.59,7H47z"/>
				</g>
				<g>
					<path fill="#B22424" d="M43.14,177l4.95-5h127.64c0,0-8.23,1.59-9.06,2.5c-0.83,0.91,4.12,2.5,4.12,2.5H43.14z"/>
					<path fill="#B2B2B2" d="M38.06,183l5.07-6h127.64c0,0-8.29,2.08-9.13,3c-0.84,0.92,4.05,3,4.05,3H38.06z"/>
					<path fill="#B2B2B2" d="M28.17,194l4.95-6h127.64c0,0-8.23,2.09-9.06,3c-0.83,0.91,4.12,3,4.12,3H28.17z"/>
					<path fill="#B22424" d="M33.12,188l4.95-5H165.7c0,0-8.23,1.59-9.06,2.5s4.12,2.5,4.12,2.5H33.12z"/>
				</g>
			</g>
			<g>
				<g>
					<path fill="#E8E7BF" d="M145.04,183.67c0.58,2.32-1.02,4.64-3.58,5.18c-2.55,0.54-5.09-0.9-5.67-3.22
						c-0.58-2.32,1.02-4.63,3.58-5.18C141.92,179.92,144.46,181.36,145.04,183.67z"/>
					<path fill="#E8E7BF" d="M142.76,189.59c-0.4-1.6,0.69-3.2,2.44-3.57c1.75-0.37,3.49,0.63,3.89,2.23"/>
					<path fill="#E8E7BF" d="M145.64,179.5c-0.37-1.49-1.42-2.53-2.35-2.34c-0.92,0.2-1.37,1.56-1,3.05
						c0.37,1.49,1.42,2.53,2.35,2.34C145.57,182.35,146.02,180.99,145.64,179.5z"/>
					<path fill="#E8E7BF" d="M140.13,189.37c-0.3-1.19-1.52-1.95-2.73-1.69c-1.21,0.26-1.95,1.43-1.65,2.62"/>
					<path fill="#E8E7BF" d="M139.39,180.57c0.32,1.29-0.77,2.63-2.45,2.98c-1.67,0.36-3.29-0.4-3.61-1.7
						c-0.32-1.29,0.77-2.63,2.45-2.98C137.45,178.52,139.07,179.28,139.39,180.57z"/>
					<path fill="#E8E7BF" d="M133.69,186.82c0.34,1.35,1.99,2.16,3.7,1.8c1.7-0.36,2.81-1.75,2.47-3.1c-0.34-1.35-1.99-2.16-3.7-1.8
						C134.46,184.08,133.35,185.47,133.69,186.82z"/>
					<path fill="#E8E7BF" d="M142.64,180.47c-0.25-0.99-1.14-1.63-2-1.45c-0.86,0.18-1.36,1.13-1.11,2.11
						c0.25,0.98,1.14,1.63,2,1.45C142.39,182.4,142.89,181.45,142.64,180.47z"/>
					<path fill="#E8E7BF" d="M147.97,183.79c0.34,1.35-0.69,2.73-2.3,3.07c-1.61,0.34-3.19-0.48-3.53-1.83
						c-0.34-1.35,0.69-2.73,2.3-3.07C146.05,181.62,147.63,182.44,147.97,183.79z"/>
					<path fill="#E8E7BF" d="M145.42,183.66c-0.22-1.54-1.61-2.96-3.75-2.51c-0.13,0.03-0.25,0.06-0.37,0.1
						c-0.65-0.52-1.55-0.79-2.65-0.55c-3.97,0.84-2.57,6.46,1.38,5.65c0.5,1.21,1.76,2.13,3.54,1.75
						C146.05,187.56,146.44,185.18,145.42,183.66z"/>
					<path fill="#A08047" d="M142.62,182.62c-0.22-0.37-0.76-0.28-0.92,0.08c-0.15,0.34-0.25,0.8-0.46,1.16
						c-0.05,0-0.09,0-0.14,0.01c-0.16-0.06-0.35-0.06-0.53,0.07c-0.19,0.14-0.42,0-0.58-0.13c-0.21-0.16-0.49-0.2-0.71-0.02
						c-0.18,0.16-0.23,0.48-0.02,0.65c0.28,0.22,0.58,0.37,0.9,0.43c-0.15,0.23-0.26,0.48-0.32,0.75c-0.05,0.25,0.04,0.49,0.33,0.57
						c0.22,0.06,0.52-0.04,0.61-0.24c0.1,0.01,0.2-0.01,0.29-0.05c0.08-0.04,0.16-0.09,0.24-0.13c0.24,0.12,0.51,0.19,0.79,0.15
						c0.44-0.08,0.7-0.41,0.83-0.77C143.2,184.37,143.03,183.31,142.62,182.62z"/>
				</g>
				<g>
					<path fill="#E8E7BF" d="M174.94,160.84c1.04,4.16-1.8,8.31-6.34,9.27c-4.54,0.96-9.07-1.62-10.11-5.78
						c-1.04-4.16,1.8-8.31,6.34-9.27S173.9,156.68,174.94,160.84z"/>
					<path fill="#E8E7BF" d="M179.06,169.56c0.72,2.9-1.26,5.79-4.42,6.46c-3.17,0.67-6.32-1.13-7.04-4.03
						c-0.73-2.9,1.26-5.79,4.42-6.47C175.18,164.86,178.33,166.66,179.06,169.56z"/>
					<path fill="#E8E7BF" d="M157.98,174.14c0.7,2.79,3.73,4.53,6.78,3.88c3.05-0.65,4.95-3.43,4.26-6.22
						c-0.7-2.79-3.73-4.53-6.78-3.88C159.19,168.56,157.28,171.35,157.98,174.14z"/>
					<path fill="#E8E7BF" d="M147.64,169.24c0.9,3.61,4.83,5.86,8.78,5.02c3.94-0.84,6.41-4.44,5.51-8.05
						c-0.9-3.61-4.83-5.86-8.77-5.02C149.2,162.02,146.74,165.63,147.64,169.24z"/>
					<path fill="#E8E7BF" d="M166.99,159.35c-1.89,0.4-3.36,1.64-4.07,3.19c-1.1-0.44-2.35-0.57-3.59-0.31
						c-3.1,0.66-5.09,3.57-4.38,6.4c0.71,2.83,3.88,4.65,6.98,3.99c1.89-0.4,3.36-1.64,4.07-3.19c1.1,0.44,2.35,0.58,3.59,0.31
						c3.1-0.66,5.09-3.57,4.38-6.4C173.26,160.51,170.09,158.69,166.99,159.35z"/>
				</g>
				<g>
					<path fill="#E8E7BF" d="M142.59,188.61"/>
					<path fill="#E8E7BF" d="M133.45,187.58c2.82-0.6,5.64,1.01,6.28,3.59"/>
					<path fill="#E8E7BF" d="M148.94,188.36c-0.53-2.13-2.33-3.57-4.01-3.22s-2.61,2.37-2.08,4.51"/>
					<path fill="#E8E7BF" d="M143.84,189.13"/>
				</g>
				<g>
					<path fill="#E8E7BF" d="M218.94,179.14c0.74,2.95-1.24,5.89-4.42,6.57c-3.18,0.67-6.36-1.17-7.1-4.13
						c-0.74-2.95,1.24-5.9,4.43-6.57C215.02,174.34,218.2,176.19,218.94,179.14z"/>
					<path fill="#E8E7BF" d="M207.65,185.95c0.45,1.78,2.28,2.92,4.09,2.53c1.82-0.38,2.93-2.14,2.48-3.93
						c-0.45-1.78-2.28-2.92-4.09-2.53C208.32,182.41,207.21,184.17,207.65,185.95z"/>
					<path fill="#E8E7BF" d="M205.87,182.93c0.34,1.35,2.03,2.15,3.78,1.78c1.75-0.37,2.89-1.77,2.55-3.12
						c-0.34-1.35-2.03-2.15-3.78-1.78C206.68,180.18,205.53,181.57,205.87,182.93z"/>
					<path fill="#E8E7BF" d="M222.99,180.98c0.47,1.87-0.39,3.64-1.91,3.96c-1.52,0.32-3.14-0.93-3.6-2.79
						c-0.47-1.86,0.39-3.64,1.92-3.96C220.91,177.86,222.52,179.11,222.99,180.98z"/>
					<path fill="#E8E7BF" d="M220.1,183.78c0.51,2.03-0.64,4.01-2.57,4.42c-1.93,0.41-3.9-0.91-4.41-2.94
						c-0.51-2.03,0.64-4.01,2.57-4.42C217.62,180.44,219.59,181.75,220.1,183.78z"/>
					<path fill="#E8E7BF" d="M214.04,179.71c-3.95,0.84-2.54,6.48,1.41,5.64C219.4,184.52,217.99,178.87,214.04,179.71z"/>
				</g>
				<g>
					<path fill="#E8E7BF" d="M187.98,168.11c0.67,2.67,3.94,4.25,7.3,3.53c3.37-0.71,5.56-3.45,4.89-6.12
						c-0.67-2.67-3.93-4.25-7.3-3.53C189.5,162.7,187.31,165.44,187.98,168.11z"/>
					<path fill="#E8E7BF" d="M192.87,161.99c0.53,2.13,2.07,3.63,3.44,3.34c1.36-0.29,2.04-2.25,1.51-4.39
						c-0.53-2.13-2.07-3.63-3.44-3.34S192.34,159.86,192.87,161.99z"/>
					<path fill="#E8E7BF" d="M196.25,165.1c0.28,1.11,1.6,1.77,2.95,1.48c1.35-0.29,2.23-1.42,1.95-2.53
						c-0.28-1.11-1.6-1.77-2.95-1.48C196.85,162.87,195.97,164,196.25,165.1z"/>
					<path fill="#E8E7BF" d="M194.72,169.42c0.49,1.97,2.76,3.17,5.07,2.68c2.31-0.49,3.78-2.48,3.28-4.45
						c-0.49-1.97-2.76-3.17-5.07-2.68C195.7,165.46,194.23,167.45,194.72,169.42z"/>
					<path fill="#E8E7BF" d="M195.51,162.83c-3.95,0.84-2.54,6.48,1.41,5.65C200.88,167.64,199.47,162,195.51,162.83z"/>
				</g>
				<g>
					<path fill="#E8E7BF" d="M224.98,169.1c0.74,2.95-1.24,5.89-4.43,6.57c-3.18,0.68-6.36-1.17-7.1-4.12
						c-0.74-2.95,1.24-5.89,4.43-6.57C221.06,164.3,224.24,166.14,224.98,169.1z"/>
					<path fill="#E8E7BF" d="M213.69,175.91c0.45,1.78,2.28,2.92,4.09,2.53c1.82-0.38,2.92-2.14,2.48-3.93
						c-0.45-1.78-2.28-2.92-4.1-2.53C214.35,172.37,213.25,174.13,213.69,175.91z"/>
					<path fill="#E8E7BF" d="M211.91,172.89c0.34,1.35,2.03,2.15,3.78,1.78c1.75-0.37,2.89-1.77,2.55-3.12s-2.03-2.15-3.78-1.78
						C212.71,170.13,211.57,171.53,211.91,172.89z"/>
					<path fill="#E8E7BF" d="M229.03,170.94c0.47,1.87-0.39,3.64-1.91,3.97c-1.53,0.32-3.14-0.93-3.61-2.79
						c-0.46-1.87,0.39-3.64,1.91-3.97C226.95,167.82,228.56,169.07,229.03,170.94z"/>
					<path fill="#E8E7BF" d="M226.14,173.74c0.51,2.03-0.64,4.01-2.57,4.42c-1.93,0.41-3.9-0.9-4.41-2.94
						c-0.51-2.03,0.64-4.01,2.57-4.42C223.66,170.39,225.63,171.71,226.14,173.74z"/>
					<path fill="#E8E7BF" d="M219.86,169.71c-3.95,0.84-2.54,6.48,1.41,5.64C225.72,174.42,224.31,168.77,219.86,169.71z"/>
				</g>
				<g>
					<path fill="#E8E7BF" d="M182.64,187.78c-0.74-2.95,1.24-5.89,4.42-6.57c3.18-0.67,6.36,1.17,7.1,4.13"/>
					<path fill="#E8E7BF" d="M189.45,190.75c-0.44-1.78-2.28-2.92-4.09-2.53"/>
					<path fill="#E8E7BF" d="M181.1,189.13c0.34,1.35,2.03,2.15,3.78,1.78c1.75-0.37,2.89-1.77,2.55-3.12
						c-0.34-1.35-2.03-2.15-3.78-1.78C181.9,186.37,180.76,187.77,181.1,189.13z"/>
					<path fill="#E8E7BF" d="M198.21,187.17c0.47,1.87-0.39,3.64-1.91,3.97c-1.52,0.32-3.14-0.93-3.6-2.79
						c-0.47-1.87,0.39-3.64,1.91-3.96C196.13,184.05,197.75,185.31,198.21,187.17z"/>
					<path fill="#E8E7BF" d="M190.92,187.04c1.93-0.41,3.9,0.91,4.41,2.94"/>
					<path fill="#E8E7BF" d="M189.31,185.89"/>
				</g>
				<g>
					<path fill="#E8E7BF" d="M182.04,185.72c3.18-0.67,6.36,1.17,7.1,4.13"/>
					<path fill="#E8E7BF" d="M178.62,190.51"/>
					<path fill="#E8E7BF" d="M189.58,188.89"/>
					<path fill="#E8E7BF" d="M183.95,190.47"/>
				</g>
				<g>
					<path fill="#E8E7BF" d="M227.42,182.97c0.74,2.95-1.24,5.9-4.43,6.57c-3.18,0.68-6.36-1.17-7.1-4.12s1.24-5.89,4.43-6.57
						C223.5,178.17,226.68,180.02,227.42,182.97z"/>
					<path fill="#E8E7BF" d="M222.71,188.39c-0.45-1.78-2.28-2.92-4.09-2.53c-1.82,0.38-2.92,2.15-2.48,3.93"/>
					<path fill="#E8E7BF" d="M214.35,186.76c0.34,1.35,2.03,2.15,3.78,1.78c1.75-0.37,2.89-1.77,2.55-3.12
						c-0.34-1.35-2.03-2.15-3.78-1.78C215.16,184.01,214.01,185.41,214.35,186.76z"/>
					<path fill="#E8E7BF" d="M231.47,184.81c0.47,1.87-0.39,3.64-1.92,3.96c-1.52,0.32-3.14-0.93-3.6-2.79
						c-0.47-1.87,0.39-3.64,1.92-3.96C229.39,181.69,231,182.94,231.47,184.81z"/>
					<path fill="#E8E7BF" d="M221.6,189.09c-0.51-2.03,0.64-4.01,2.57-4.42c1.93-0.41,3.9,0.91,4.41,2.94"/>
					<path fill="#E8E7BF" d="M222.54,183.54c-4.2,0.89-2.79,6.54,1.41,5.64C228.15,188.29,226.74,182.65,222.54,183.54z"/>
				</g>
				<g>
					<path fill="#E8E7BF" d="M197.56,164.04c0.67,2.67-1.41,5.38-4.64,6.07c-3.23,0.68-6.38-0.92-7.05-3.59
						c-0.67-2.67,1.41-5.38,4.64-6.07C193.74,159.77,196.9,161.38,197.56,164.04z"/>
					<path fill="#E8E7BF" d="M190.05,158.6c0.52,2.09-0.91,4.18-3.19,4.67c-2.29,0.49-4.56-0.82-5.08-2.91
						c-0.52-2.09,0.91-4.18,3.19-4.67C187.25,155.2,189.52,156.51,190.05,158.6z"/>
					<path fill="#E8E7BF" d="M191.09,160.72c0.48,1.93,2.56,3.13,4.65,2.69c2.08-0.44,3.38-2.36,2.9-4.29
						c-0.48-1.93-2.56-3.13-4.65-2.69C191.91,156.87,190.61,158.8,191.09,160.72z"/>
					<path fill="#E8E7BF" d="M191.37,163.87c-0.47-1.89-3.14-2.93-5.97-2.33s-4.73,2.62-4.26,4.5c0.47,1.89,3.14,2.93,5.97,2.33
						C189.93,167.77,191.84,165.76,191.37,163.87z"/>
					<path fill="#E8E7BF" d="M189.22,158.66c0.32,1.29,1.27,2.19,2.12,2.01c0.85-0.18,1.27-1.38,0.95-2.67
						c-0.32-1.29-1.27-2.19-2.12-2.01C189.33,156.17,188.9,157.36,189.22,158.66z"/>
					<path fill="#E8E7BF" d="M188.69,157.4c-3.95,0.84-2.54,6.48,1.41,5.64C194.3,162.15,192.89,156.51,188.69,157.4z"/>
					<path fill="#A08047" d="M192.48,159.08c-0.12,0.21-0.24,0.42-0.39,0.62c-0.44,0.45-1.06,0.4-1.53,0.15
						c0.17-0.55,0.16-1.19-0.11-1.88c-0.1-0.25-0.43-0.48-0.72-0.3c-0.62,0.38-0.87,0.83-0.86,1.29c-0.38,0.59-0.64,1.15-0.68,1.79
						c-0.4,0.05-0.86-0.03-1.35-0.26c-0.57-0.27-1.11,0.51-0.53,0.78c0.78,0.37,1.56,0.45,2.23,0.32c0.09,0.02,0.18,0.03,0.26,0.02
						c0.29-0.04,0.58-0.04,0.88-0.06c-0.02,0.25-0.11,0.48-0.28,0.69c-0.35,0.5,0.5,0.98,0.85,0.49c0.31-0.44,0.43-0.87,0.42-1.35
						c0.01,0,0.03,0.01,0.04,0.01c0.96,0.14,1.66-0.43,2.16-1.11c0.2-0.21,0.37-0.48,0.51-0.81
						C193.59,158.97,192.74,158.62,192.48,159.08z"/>
				</g>
				<g>
					<path fill="#E8E7BF" d="M167.83,164.09c0.75,2.99-1.3,5.98-4.57,6.68c-3.27,0.7-6.53-1.17-7.28-4.17
						c-0.75-3,1.3-5.98,4.57-6.68C163.83,159.24,167.08,161.1,167.83,164.09z"/>
					<path fill="#E8E7BF" d="M159.68,164.97c0.43,1.72-0.75,3.44-2.63,3.84c-1.88,0.4-3.76-0.67-4.19-2.4s0.75-3.44,2.63-3.84
						C157.37,162.17,159.24,163.24,159.68,164.97z"/>
					<path fill="#E8E7BF" d="M168.35,170.95c0.43,1.72-0.75,3.44-2.63,3.84c-1.88,0.4-3.76-0.67-4.19-2.4
						c-0.43-1.72,0.75-3.44,2.63-3.84C166.04,168.15,167.92,169.22,168.35,170.95z"/>
					<path fill="#E8E7BF" d="M153.6,171.42c0.68,2.71,3.62,4.39,6.58,3.77c2.96-0.63,4.81-3.33,4.13-6.04
						c-0.68-2.71-3.63-4.39-6.58-3.76C154.77,166,152.92,168.71,153.6,171.42z"/>
					<path fill="#E8E7BF" d="M161.26,162.13c-3.95,0.84-2.54,6.48,1.41,5.64C166.87,166.88,165.46,161.23,161.26,162.13z"/>
				</g>
				<g>
					<path fill="#E8E7BF" d="M194.74,188.65"/>
				</g>
				<g>
					<path fill="#E8E7BF" d="M162.36,190.36"/>
					<path fill="#E8E7BF" d="M167.3,189.31c-0.53-2.13-2.07-3.63-3.44-3.34c-1.37,0.29-2.04,2.25-1.51,4.39"/>
					<path fill="#E8E7BF" d="M167.69,190.95"/>
					<path fill="#E8E7BF" d="M164.89,191.23"/>
				</g>
				<g>
					<path fill="#E8E7BF" d="M189.44,169.83c0.67,2.67-1.41,5.38-4.64,6.07c-3.23,0.69-6.38-0.92-7.05-3.59
						c-0.67-2.67,1.41-5.38,4.64-6.07C185.61,165.56,188.77,167.17,189.44,169.83z"/>
					<path fill="#E8E7BF" d="M181.92,164.39c0.52,2.09-0.91,4.18-3.19,4.67c-2.29,0.48-4.56-0.82-5.08-2.91
						c-0.52-2.09,0.91-4.18,3.19-4.67C179.12,160.99,181.4,162.3,181.92,164.39z"/>
					<path fill="#E8E7BF" d="M182.97,166.51c0.48,1.93,2.56,3.13,4.64,2.69c2.08-0.44,3.39-2.36,2.9-4.29
						c-0.48-1.93-2.56-3.13-4.65-2.69C183.78,162.66,182.49,164.59,182.97,166.51z"/>
					<path fill="#E8E7BF" d="M183.24,169.66c-0.47-1.89-3.14-2.93-5.97-2.33c-2.82,0.6-4.73,2.61-4.26,4.5
						c0.47,1.89,3.14,2.93,5.97,2.33C181.81,173.56,183.71,171.55,183.24,169.66z"/>
					<path fill="#E8E7BF" d="M181.1,164.45c0.32,1.29,1.27,2.19,2.12,2.01s1.27-1.37,0.95-2.67c-0.32-1.29-1.27-2.2-2.12-2.02
						C181.2,161.96,180.78,163.16,181.1,164.45z"/>
					<path fill="#E8E7BF" d="M180.52,163.2c-3.95,0.84-2.54,6.48,1.41,5.64C185.88,168.01,184.47,162.36,180.52,163.2z"/>
					<path fill="#A08047" d="M184.36,164.87c-0.12,0.21-0.24,0.42-0.39,0.62c-0.44,0.45-1.06,0.4-1.52,0.15
						c0.17-0.55,0.16-1.19-0.11-1.88c-0.1-0.25-0.43-0.48-0.72-0.3c-0.62,0.38-0.87,0.83-0.86,1.29c-0.38,0.59-0.64,1.15-0.68,1.79
						c-0.4,0.04-0.86-0.03-1.36-0.26c-0.57-0.27-1.1,0.51-0.53,0.78c0.78,0.37,1.56,0.45,2.23,0.32c0.09,0.02,0.18,0.03,0.27,0.02
						c0.29-0.03,0.58-0.04,0.88-0.06c-0.02,0.25-0.11,0.48-0.28,0.69c-0.35,0.5,0.5,0.98,0.85,0.48c0.31-0.44,0.43-0.88,0.42-1.35
						c0.01,0,0.03,0.01,0.04,0.01c0.96,0.13,1.66-0.43,2.17-1.11c0.2-0.21,0.37-0.48,0.51-0.81
						C185.46,164.76,184.62,164.41,184.36,164.87z"/>
				</g>
				<g>
					<path fill="#E8E7BF" d="M204.38,172.84c0.74,2.95-1.24,5.9-4.42,6.57c-3.18,0.67-6.36-1.17-7.1-4.12
						c-0.74-2.95,1.24-5.9,4.43-6.57C200.46,168.04,203.64,169.89,204.38,172.84z"/>
					<path fill="#E8E7BF" d="M193.09,179.66c0.45,1.78,2.28,2.92,4.09,2.53s2.93-2.14,2.48-3.93c-0.45-1.78-2.28-2.92-4.09-2.53
						C193.75,176.11,192.64,177.87,193.09,179.66z"/>
					<path fill="#E8E7BF" d="M191.31,176.63c0.34,1.35,2.03,2.15,3.78,1.78c1.75-0.37,2.89-1.77,2.55-3.12
						c-0.34-1.35-2.03-2.15-3.78-1.78C192.11,173.88,190.97,175.28,191.31,176.63z"/>
					<path fill="#E8E7BF" d="M208.42,174.68c0.47,1.87-0.39,3.64-1.91,3.96c-1.53,0.32-3.14-0.93-3.6-2.79
						c-0.47-1.87,0.39-3.64,1.91-3.97C206.34,171.56,207.96,172.82,208.42,174.68z"/>
					<path fill="#E8E7BF" d="M205.54,177.49c0.51,2.03-0.64,4.01-2.57,4.42c-1.93,0.41-3.9-0.91-4.41-2.94
						c-0.51-2.03,0.64-4.01,2.57-4.42C203.05,174.14,205.03,175.45,205.54,177.49z"/>
					<path fill="#E8E7BF" d="M199.46,173.42c-3.95,0.84-2.54,6.48,1.41,5.64C205.07,178.17,203.66,172.53,199.46,173.42z"/>
				</g>
				<g>
					<path fill="#E8E7BF" d="M184.48,169.16c0.67,2.67,3.93,4.25,7.3,3.53c3.37-0.71,5.55-3.45,4.89-6.12
						c-0.67-2.67-3.93-4.25-7.3-3.53C186.01,163.76,183.82,166.5,184.48,169.16z"/>
					<path fill="#E8E7BF" d="M189.37,163.04c0.53,2.13,2.07,3.63,3.44,3.34c1.36-0.29,2.04-2.25,1.51-4.39
						c-0.53-2.13-2.07-3.63-3.44-3.34C189.51,158.95,188.84,160.91,189.37,163.04z"/>
					<path fill="#E8E7BF" d="M192.75,166.16c0.28,1.11,1.6,1.77,2.95,1.49c1.36-0.29,2.23-1.42,1.95-2.53
						c-0.28-1.11-1.6-1.77-2.96-1.49C193.35,163.92,192.48,165.05,192.75,166.16z"/>
					<path fill="#E8E7BF" d="M191.23,170.47c0.49,1.97,2.76,3.17,5.07,2.68c2.31-0.49,3.78-2.48,3.29-4.45
						c-0.49-1.97-2.76-3.17-5.07-2.68C192.21,166.51,190.74,168.5,191.23,170.47z"/>
					<path fill="#E8E7BF" d="M191.88,163.92c-3.95,0.84-2.54,6.48,1.41,5.64C197.25,168.73,195.83,163.08,191.88,163.92z"/>
				</g>
				<g>
					<path fill="#E8E7BF" d="M220.48,189.76"/>
					<path fill="#E8E7BF" d="M229.51,190.5"/>
					<path fill="#E8E7BF" d="M225.7,190.06"/>
				</g>
				<g>
					<path fill="#E8E7BF" d="M167.02,186.17c0.28,1.11-1.79,2.49-4.61,3.09c-2.82,0.6-5.34,0.19-5.61-0.92
						c-0.28-1.11,1.79-2.49,4.61-3.09C164.23,184.65,166.75,185.06,167.02,186.17z"/>
					<path fill="#E8E7BF" d="M168.01,183.26c0.41,1.66-1.1,3.4-3.39,3.89c-2.29,0.49-4.48-0.47-4.89-2.13
						c-0.41-1.66,1.1-3.4,3.39-3.89C165.4,180.64,167.59,181.6,168.01,183.26z"/>
					<path fill="#E8E7BF" d="M164.3,188.93c-0.48-1.93,0.22-3.72,1.56-4.01c1.34-0.28,2.83,1.05,3.31,2.97"/>
					<path fill="#E8E7BF" d="M164.81,187.91c-0.41-1.62-1.66-2.75-2.81-2.5c-1.14,0.24-1.74,1.76-1.33,3.38"/>
					<path fill="#A08047" d="M164.36,190.75c0.06-0.04,0.13-0.08,0.19-0.13c0.44-0.34-0.09-0.97-0.58-0.73
						c-0.2,0.08-0.39,0.09-0.57,0.05c0.34-1.15,0.93-2.88-0.75-3.17c-0.24-0.04-0.57,0.04-0.63,0.3c-0.1,0.49-0.12,1-0.31,1.47
						c-0.23,0.55,0.72,0.82,0.95,0.27c0.07-0.18,0.12-0.36,0.15-0.54c0,0.55-0.34,1.3-0.45,1.7c-0.19-0.13-0.36-0.29-0.51-0.49
						c-0.36-0.49-1.12-0.11-0.88,0.44c0.31,0.71,0.85,1.12,1.46,1.25c0.03,0.04,0.07,0.08,0.12,0.11"/>
				</g>
				<g>
					<path fill="#E8E7BF" d="M212.54,167.53c0.46,1.84-0.8,3.68-2.81,4.11c-2.01,0.43-4.01-0.72-4.48-2.56
						c-0.46-1.84,0.8-3.68,2.81-4.11C210.07,164.54,212.08,165.69,212.54,167.53z"/>
					<path fill="#E8E7BF" d="M214.36,171.39c0.32,1.28-0.56,2.56-1.96,2.86c-1.4,0.3-2.8-0.5-3.12-1.78
						c-0.32-1.28,0.56-2.57,1.96-2.86C212.64,169.31,214.04,170.11,214.36,171.39z"/>
					<path fill="#E8E7BF" d="M205.03,173.42c0.31,1.24,1.65,2.01,3,1.72c1.35-0.29,2.19-1.52,1.89-2.75c-0.31-1.24-1.66-2-3-1.72
						C205.56,170.95,204.72,172.18,205.03,173.42z"/>
					<path fill="#E8E7BF" d="M200.45,171.25c0.4,1.6,2.14,2.59,3.89,2.22c1.75-0.37,2.84-1.97,2.44-3.57
						c-0.4-1.6-2.14-2.59-3.89-2.22C201.14,168.06,200.05,169.65,200.45,171.25z"/>
					<path fill="#E8E7BF" d="M209.02,166.87c-0.83,0.18-1.49,0.73-1.8,1.41c-0.49-0.19-1.04-0.25-1.59-0.14
						c-1.37,0.29-2.25,1.58-1.94,2.84c0.31,1.25,1.72,2.06,3.09,1.77c0.83-0.18,1.49-0.73,1.8-1.41c0.49,0.19,1.04,0.25,1.59,0.14
						c1.37-0.29,2.25-1.58,1.94-2.84C211.79,167.38,210.39,166.58,209.02,166.87z"/>
				</g>
				<g>
					<path fill="#E8E7BF" d="M133.98,189.03"/>
					<path fill="#E8E7BF" d="M134.72,191.22"/>
				</g>
				<g>
					<path fill="#E8E7BF" d="M176.53,179.06c0.74,2.95-1.24,5.89-4.43,6.57c-3.18,0.67-6.36-1.17-7.1-4.13
						c-0.74-2.96,1.24-5.9,4.42-6.57C172.61,174.26,175.79,176.11,176.53,179.06z"/>
					<path fill="#E8E7BF" d="M165.24,185.88c0.45,1.78,2.28,2.92,4.09,2.53c1.82-0.38,2.93-2.14,2.48-3.93s-2.28-2.92-4.09-2.53
						C165.91,182.33,164.8,184.09,165.24,185.88z"/>
					<path fill="#E8E7BF" d="M163.46,182.85c0.34,1.35,2.03,2.15,3.78,1.78c1.75-0.37,2.89-1.77,2.55-3.12
						c-0.34-1.36-2.03-2.15-3.78-1.78C164.27,180.1,163.12,181.5,163.46,182.85z"/>
					<path fill="#E8E7BF" d="M180.58,180.9c0.47,1.87-0.39,3.64-1.92,3.96c-1.52,0.32-3.14-0.93-3.6-2.79
						c-0.47-1.87,0.39-3.64,1.92-3.97C178.5,177.79,180.11,179.04,180.58,180.9z"/>
					<path fill="#E8E7BF" d="M177.69,183.71c0.51,2.03-0.64,4.01-2.57,4.42c-1.93,0.41-3.9-0.91-4.41-2.94
						c-0.51-2.03,0.64-4.01,2.57-4.42C175.21,180.36,177.18,181.68,177.69,183.71z"/>
					<path fill="#E8E7BF" d="M171.37,179.69c-3.71,0.79-2.29,6.43,1.41,5.64C176.98,184.44,175.57,178.8,171.37,179.69z"/>
				</g>
				<g>
					<path fill="#E8E7BF" d="M161.29,173.46c0.67,2.67,3.93,4.25,7.3,3.54c3.37-0.71,5.55-3.46,4.89-6.12
						c-0.67-2.67-3.93-4.25-7.3-3.54C162.81,168.05,160.62,170.79,161.29,173.46z"/>
					<path fill="#E8E7BF" d="M166.17,167.34c0.53,2.13,2.07,3.63,3.44,3.34c1.37-0.29,2.04-2.25,1.51-4.39
						c-0.53-2.13-2.07-3.63-3.44-3.34C166.32,163.24,165.64,165.21,166.17,167.34z"/>
					<path fill="#E8E7BF" d="M169.55,170.46c0.28,1.11,1.6,1.77,2.96,1.48c1.35-0.29,2.23-1.42,1.95-2.53
						c-0.28-1.11-1.6-1.77-2.95-1.48C170.15,168.22,169.28,169.35,169.55,170.46z"/>
					<path fill="#E8E7BF" d="M168.03,174.77c0.49,1.97,2.76,3.17,5.07,2.68c2.31-0.49,3.78-2.48,3.28-4.45
						c-0.49-1.97-2.76-3.17-5.07-2.68C169.01,170.81,167.54,172.8,168.03,174.77z"/>
					<path fill="#E8E7BF" d="M168.51,168.25c-3.71,0.79-2.29,6.43,1.41,5.64C173.88,173.06,172.47,167.41,168.51,168.25z"/>
				</g>
				<g>
					<path fill="#E8E7BF" d="M209.99,164.53c0.67,2.67-1.41,5.38-4.64,6.07c-3.23,0.69-6.38-0.92-7.05-3.59
						c-0.67-2.67,1.41-5.38,4.64-6.07C206.17,160.26,209.33,161.87,209.99,164.53z"/>
					<path fill="#E8E7BF" d="M202.48,159.09c0.52,2.09-0.91,4.18-3.19,4.67c-2.29,0.48-4.56-0.82-5.09-2.91
						c-0.52-2.09,0.91-4.18,3.19-4.67C199.68,155.7,201.95,157,202.48,159.09z"/>
					<path fill="#E8E7BF" d="M203.52,161.21c0.48,1.93,2.56,3.13,4.65,2.69c2.08-0.44,3.38-2.36,2.9-4.29
						c-0.48-1.93-2.56-3.13-4.65-2.69C204.34,157.36,203.04,159.29,203.52,161.21z"/>
					<path fill="#E8E7BF" d="M203.79,164.36c-0.47-1.89-3.14-2.93-5.97-2.33c-2.82,0.6-4.73,2.61-4.26,4.5
						c0.47,1.89,3.14,2.93,5.97,2.33S204.27,166.25,203.79,164.36z"/>
					<path fill="#E8E7BF" d="M201.65,159.15c0.32,1.29,1.27,2.19,2.12,2.01c0.85-0.18,1.27-1.37,0.95-2.67
						c-0.32-1.29-1.27-2.19-2.12-2.02C201.75,156.66,201.33,157.85,201.65,159.15z"/>
					<path fill="#E8E7BF" d="M201.04,157.91c-3.95,0.84-2.54,6.48,1.41,5.64C206.66,162.66,205.24,157.02,201.04,157.91z"/>
					<path fill="#A08047" d="M204.91,159.57c-0.12,0.21-0.24,0.42-0.38,0.62c-0.44,0.45-1.06,0.4-1.53,0.14
						c0.17-0.55,0.16-1.19-0.11-1.88c-0.1-0.25-0.42-0.48-0.72-0.3c-0.62,0.37-0.87,0.83-0.86,1.29c-0.38,0.59-0.64,1.15-0.68,1.79
						c-0.4,0.04-0.86-0.03-1.35-0.26c-0.57-0.27-1.1,0.51-0.53,0.78c0.78,0.37,1.55,0.45,2.23,0.32c0.09,0.02,0.18,0.03,0.26,0.02
						c0.29-0.03,0.58-0.04,0.88-0.06c-0.02,0.25-0.11,0.48-0.28,0.69c-0.35,0.5,0.5,0.98,0.84,0.48c0.31-0.44,0.43-0.87,0.42-1.35
						c0.01,0,0.03,0.01,0.04,0.01c0.96,0.13,1.66-0.43,2.17-1.11c0.2-0.21,0.37-0.48,0.51-0.81
						C206.01,159.46,205.17,159.11,204.91,159.57z"/>
				</g>
				<g>
					<path fill="#E8E7BF" d="M199.46,170.03c1.04,4.16-1.8,8.31-6.34,9.27c-4.54,0.96-9.07-1.62-10.11-5.78
						c-1.04-4.16,1.8-8.31,6.34-9.27C193.89,163.28,198.42,165.87,199.46,170.03z"/>
					<path fill="#E8E7BF" d="M203.57,178.75c0.72,2.9-1.26,5.79-4.42,6.47c-3.17,0.67-6.32-1.13-7.05-4.03
						c-0.73-2.9,1.26-5.79,4.42-6.47C199.69,174.05,202.85,175.85,203.57,178.75z"/>
					<path fill="#E8E7BF" d="M182.5,183.33c0.7,2.79,3.73,4.53,6.78,3.88c3.05-0.65,4.95-3.43,4.25-6.22
						c-0.7-2.79-3.73-4.53-6.78-3.88C183.71,177.75,181.8,180.54,182.5,183.33z"/>
					<path fill="#E8E7BF" d="M172.16,178.43c0.9,3.61,4.83,5.86,8.78,5.02c3.94-0.84,6.41-4.44,5.51-8.05
						c-0.9-3.61-4.83-5.86-8.78-5.02C173.72,171.21,171.25,174.82,172.16,178.43z"/>
					<path fill="#E8E7BF" d="M191.51,168.54c-1.89,0.4-3.36,1.64-4.07,3.19c-1.1-0.44-2.35-0.58-3.59-0.31
						c-3.1,0.66-5.09,3.57-4.38,6.4c0.71,2.83,3.88,4.65,6.98,3.99c1.89-0.4,3.36-1.64,4.07-3.19c1.1,0.44,2.35,0.57,3.59,0.31
						c3.1-0.66,5.09-3.57,4.38-6.41C197.78,169.69,194.6,167.88,191.51,168.54z"/>
				</g>
				<g>
					<path fill="#E8E7BF" d="M150.91,190.76c-0.74-2.96,1.24-5.9,4.43-6.57c3.18-0.68,6.36,1.17,7.1,4.12"/>
					<path fill="#E8E7BF" d="M153.63,191.2"/>
					<path fill="#E8E7BF" d="M155.7,190.76c-0.34-1.35-2.03-2.15-3.78-1.78"/>
					<path fill="#E8E7BF" d="M162.88,187.36c1.53-0.32,3.14,0.93,3.6,2.79"/>
					<path fill="#E8E7BF" d="M159.19,190.02"/>
					<path fill="#E8E7BF" d="M157.54,188.88"/>
				</g>
				<g>
					<path fill="#E8E7BF" d="M197.5,187.05c0.67,2.67,3.94,4.25,7.3,3.53c3.37-0.71,5.55-3.46,4.89-6.12
						c-0.67-2.67-3.93-4.25-7.3-3.53C199.02,181.64,196.83,184.38,197.5,187.05z"/>
					<path fill="#E8E7BF" d="M202.39,180.93c0.53,2.13,2.07,3.63,3.44,3.34c1.36-0.29,2.04-2.25,1.51-4.39
						c-0.53-2.13-2.07-3.63-3.44-3.34C202.53,176.83,201.86,178.8,202.39,180.93z"/>
					<path fill="#E8E7BF" d="M205.77,184.04c0.28,1.11,1.6,1.77,2.95,1.48c1.35-0.29,2.23-1.42,1.95-2.53
						c-0.27-1.11-1.6-1.77-2.95-1.48C206.37,181.81,205.49,182.94,205.77,184.04z"/>
					<path fill="#E8E7BF" d="M204.24,188.36c0.49,1.97,2.76,3.17,5.07,2.68c2.31-0.49,3.78-2.48,3.29-4.45
						c-0.49-1.97-2.76-3.17-5.07-2.68C205.22,184.39,203.75,186.39,204.24,188.36z"/>
					<path fill="#E8E7BF" d="M204.94,181.8c-3.95,0.84-2.54,6.48,1.41,5.64C210.55,186.55,209.13,180.91,204.94,181.8z"/>
				</g>
				<g>
					<path fill="#E8E7BF" d="M159.75,175.51c0.67,2.67-1.41,5.38-4.64,6.07c-3.23,0.68-6.38-0.92-7.05-3.59
						c-0.67-2.67,1.41-5.38,4.64-6.07S159.08,172.84,159.75,175.51z"/>
					<path fill="#E8E7BF" d="M152.23,170.06c0.52,2.09-0.91,4.18-3.19,4.67s-4.56-0.82-5.09-2.91c-0.52-2.09,0.91-4.18,3.19-4.67
						C149.43,166.67,151.71,167.97,152.23,170.06z"/>
					<path fill="#E8E7BF" d="M153.28,172.19c0.48,1.93,2.56,3.13,4.65,2.69c2.08-0.44,3.38-2.36,2.9-4.29
						c-0.48-1.93-2.56-3.13-4.65-2.69C154.09,168.34,152.79,170.26,153.28,172.19z"/>
					<path fill="#E8E7BF" d="M153.55,175.34c-0.47-1.89-3.14-2.93-5.97-2.33c-2.82,0.6-4.73,2.62-4.26,4.5
						c0.47,1.89,3.14,2.93,5.96,2.33C152.11,179.24,154.02,177.23,153.55,175.34z"/>
					<path fill="#E8E7BF" d="M151.41,170.12c0.32,1.29,1.27,2.19,2.12,2.01c0.85-0.18,1.27-1.37,0.95-2.67
						c-0.32-1.29-1.27-2.19-2.12-2.01C151.51,167.64,151.08,168.83,151.41,170.12z"/>
					<path fill="#E8E7BF" d="M150.73,168.9c-3.95,0.84-2.54,6.48,1.41,5.64C156.34,173.65,154.93,168.01,150.73,168.9z"/>
					<path fill="#A08047" d="M154.67,170.54c-0.12,0.21-0.24,0.42-0.39,0.62c-0.44,0.45-1.06,0.4-1.52,0.15
						c0.17-0.55,0.16-1.19-0.11-1.88c-0.1-0.25-0.42-0.48-0.72-0.3c-0.62,0.38-0.87,0.83-0.86,1.29c-0.38,0.59-0.64,1.15-0.68,1.79
						c-0.4,0.05-0.86-0.03-1.36-0.26c-0.57-0.27-1.1,0.51-0.53,0.78c0.78,0.37,1.56,0.45,2.23,0.32c0.09,0.02,0.18,0.03,0.26,0.02
						c0.29-0.03,0.59-0.04,0.88-0.06c-0.02,0.25-0.11,0.48-0.29,0.7c-0.35,0.5,0.5,0.98,0.85,0.48c0.3-0.44,0.43-0.87,0.42-1.35
						c0.01,0,0.03,0.01,0.04,0.01c0.96,0.14,1.66-0.43,2.17-1.11c0.2-0.21,0.37-0.48,0.51-0.81
						C155.77,170.44,154.93,170.08,154.67,170.54z"/>
				</g>
				<g>
					<path fill="#E8E7BF" d="M215.98,160.45c0.28,1.11-1.79,2.49-4.61,3.09c-2.82,0.6-5.34,0.19-5.61-0.92s1.79-2.49,4.61-3.09
						C213.19,158.93,215.7,159.34,215.98,160.45z"/>
					<path fill="#E8E7BF" d="M216.96,157.54c0.42,1.66-1.1,3.4-3.39,3.89c-2.29,0.49-4.48-0.47-4.89-2.13
						c-0.41-1.66,1.1-3.4,3.39-3.89S216.54,155.88,216.96,157.54z"/>
					<path fill="#E8E7BF" d="M218.12,162.18c0.48,1.93-0.22,3.72-1.56,4.01c-1.35,0.29-2.83-1.05-3.31-2.97
						c-0.48-1.93,0.22-3.72,1.56-4.01C216.16,158.92,217.64,160.25,218.12,162.18z"/>
					<path fill="#E8E7BF" d="M209.63,163.08c0.41,1.62,1.66,2.75,2.8,2.5c1.14-0.24,1.74-1.75,1.33-3.38
						c-0.41-1.62-1.66-2.75-2.81-2.5C209.82,159.94,209.22,161.45,209.63,163.08z"/>
					<path fill="#A08047" d="M212.92,164.16c-0.2,0.08-0.39,0.1-0.57,0.05c0.34-1.15,0.93-2.87-0.75-3.17
						c-0.24-0.04-0.57,0.04-0.62,0.3c-0.1,0.49-0.12,1-0.31,1.47c-0.23,0.55,0.72,0.82,0.95,0.27c0.07-0.18,0.12-0.36,0.15-0.54
						c0,0.55-0.33,1.3-0.45,1.7c-0.19-0.13-0.36-0.29-0.51-0.49c-0.36-0.49-1.12-0.11-0.88,0.44c0.31,0.71,0.85,1.12,1.46,1.25
						c0.04,0.04,0.07,0.08,0.12,0.11l0.3,0.17c0.21,0.12,0.48,0.07,0.63-0.09c0.14,0.03,0.29,0.05,0.44,0.07
						c0.45,0.05,0.6-0.38,0.44-0.67c0.06-0.04,0.12-0.08,0.19-0.13C213.95,164.55,213.42,163.93,212.92,164.16z"/>
				</g>
				<g>
					<path fill="#E8E7BF" d="M221.05,189.95"/>
				</g>
				<g>
					<path fill="#E8E7BF" d="M213.21,175.35c0.74,2.95-1.24,5.9-4.42,6.57s-6.36-1.17-7.1-4.13c-0.74-2.95,1.24-5.89,4.42-6.57
						C209.29,170.55,212.47,172.39,213.21,175.35z"/>
					<path fill="#E8E7BF" d="M201.92,182.16c0.45,1.78,2.28,2.92,4.09,2.53c1.81-0.38,2.93-2.14,2.48-3.93
						c-0.45-1.79-2.28-2.92-4.09-2.53C202.58,178.62,201.47,180.38,201.92,182.16z"/>
					<path fill="#E8E7BF" d="M200.14,179.14c0.34,1.35,2.03,2.15,3.78,1.78c1.75-0.37,2.89-1.77,2.55-3.12
						c-0.34-1.35-2.03-2.15-3.78-1.78C200.94,176.39,199.8,177.78,200.14,179.14z"/>
					<path fill="#E8E7BF" d="M217.26,177.19c0.47,1.87-0.39,3.64-1.91,3.97c-1.52,0.32-3.14-0.93-3.6-2.79
						c-0.47-1.87,0.39-3.64,1.92-3.96C215.18,174.07,216.79,175.32,217.26,177.19z"/>
					<path fill="#E8E7BF" d="M214.37,179.99c0.51,2.03-0.64,4.01-2.57,4.42s-3.9-0.91-4.41-2.94s0.64-4.01,2.57-4.42
						C211.89,176.65,213.86,177.96,214.37,179.99z"/>
					<path fill="#E8E7BF" d="M208.16,175.95c-3.95,0.84-2.54,6.48,1.41,5.65C214.01,180.65,212.6,175.01,208.16,175.95z"/>
				</g>
				<g>
					<path fill="#E8E7BF" d="M215.08,185.51c-0.67-2.67-3.94-4.25-7.3-3.53c-3.37,0.71-5.55,3.45-4.89,6.12"/>
					<path fill="#E8E7BF" d="M207.78,181.98c0.53,2.13,2.07,3.63,3.44,3.34c1.37-0.29,2.04-2.25,1.51-4.39
						c-0.53-2.13-2.07-3.63-3.44-3.34C207.92,177.88,207.24,179.84,207.78,181.98z"/>
					<path fill="#E8E7BF" d="M211.16,185.09c0.28,1.11,1.6,1.77,2.96,1.48c1.35-0.29,2.23-1.42,1.95-2.53
						c-0.28-1.11-1.6-1.77-2.95-1.48C211.76,182.85,210.88,183.98,211.16,185.09z"/>
					<path fill="#E8E7BF" d="M217.99,187.63c-0.49-1.97-2.76-3.17-5.07-2.68c-2.31,0.49-3.78,2.48-3.28,4.45"/>
					<path fill="#E8E7BF" d="M210.15,182.88c-3.95,0.84-2.54,6.48,1.41,5.65C215.76,187.63,214.35,181.99,210.15,182.88z"/>
				</g>
				<g>
					<path fill="#E8E7BF" d="M197.1,189.87c2.82-0.6,5.34-0.19,5.61,0.92"/>
					<path fill="#E8E7BF" d="M195.41,189.64c-0.42-1.66,1.1-3.4,3.39-3.89c2.29-0.49,4.48,0.47,4.89,2.13"/>
					<path fill="#E8E7BF" d="M201.54,189.56"/>
					<path fill="#E8E7BF" d="M197.69,190.04"/>
				</g>
				<g>
					<path fill="#E8E7BF" d="M231.53,173.84c0.67,2.67-1.15,5.33-4.06,5.95c-2.91,0.62-5.8-1.05-6.47-3.72
						c-0.67-2.67,1.15-5.33,4.05-5.95C227.97,169.51,230.86,171.17,231.53,173.84z"/>
					<path fill="#E8E7BF" d="M234.17,179.44c0.46,1.86-0.8,3.72-2.83,4.15c-2.03,0.43-4.05-0.73-4.51-2.59
						c-0.47-1.86,0.8-3.72,2.83-4.15C231.69,176.42,233.71,177.58,234.17,179.44z"/>
					<path fill="#E8E7BF" d="M220.68,182.37c0.45,1.79,2.39,2.91,4.34,2.49c1.95-0.41,3.17-2.2,2.72-3.99
						c-0.45-1.79-2.39-2.91-4.34-2.49C221.45,178.79,220.23,180.57,220.68,182.37z"/>
					<path fill="#E8E7BF" d="M214.06,179.22c0.58,2.32,3.1,3.76,5.62,3.23c2.52-0.54,4.1-2.85,3.52-5.17
						c-0.58-2.32-3.09-3.76-5.62-3.23C215.06,174.59,213.48,176.9,214.06,179.22z"/>
					<path fill="#E8E7BF" d="M226.44,172.88c-1.21,0.26-2.15,1.05-2.6,2.04c-0.71-0.28-1.5-0.37-2.3-0.2
						c-1.98,0.42-3.25,2.29-2.8,4.11c0.46,1.82,2.49,2.99,4.47,2.57c1.21-0.26,2.15-1.05,2.6-2.04c0.71,0.28,1.51,0.37,2.3,0.2
						c1.98-0.42,3.26-2.29,2.8-4.11C230.46,173.62,228.42,172.45,226.44,172.88z"/>
				</g>
				<g>
					<path fill="#E8E7BF" d="M169.71,174.33c0.75,3-1.3,5.99-4.57,6.68c-3.27,0.69-6.53-1.17-7.28-4.17
						c-0.75-2.99,1.3-5.98,4.57-6.68C165.7,169.47,168.96,171.34,169.71,174.33z"/>
					<path fill="#E8E7BF" d="M161.55,175.2c0.43,1.72-0.75,3.44-2.63,3.84c-1.88,0.4-3.76-0.67-4.19-2.4
						c-0.43-1.72,0.75-3.44,2.63-3.84C159.24,172.41,161.12,173.48,161.55,175.2z"/>
					<path fill="#E8E7BF" d="M170.22,181.18c0.43,1.72-0.75,3.44-2.63,3.84c-1.88,0.4-3.76-0.67-4.19-2.4
						c-0.43-1.72,0.75-3.44,2.63-3.84C167.92,178.39,169.79,179.46,170.22,181.18z"/>
					<path fill="#E8E7BF" d="M155.47,181.66c0.68,2.71,3.62,4.39,6.58,3.77c2.96-0.63,4.81-3.33,4.13-6.04s-3.62-4.39-6.58-3.76
						C156.64,176.24,154.8,178.95,155.47,181.66z"/>
					<path fill="#E8E7BF" d="M163.29,172.33c-3.95,0.84-2.54,6.48,1.41,5.64C168.66,177.14,167.24,171.49,163.29,172.33z"/>
				</g>
				<g>
					<path fill="#E8E7BF" d="M149.95,179.39c0.74,2.95-1.24,5.9-4.43,6.57c-3.18,0.67-6.36-1.17-7.1-4.13
						c-0.74-2.95,1.24-5.9,4.42-6.57C146.03,174.59,149.21,176.43,149.95,179.39z"/>
					<path fill="#E8E7BF" d="M138.66,186.2c0.45,1.78,2.28,2.92,4.1,2.53c1.82-0.38,2.92-2.14,2.48-3.93
						c-0.45-1.79-2.28-2.92-4.09-2.53C139.32,182.66,138.21,184.42,138.66,186.2z"/>
					<path fill="#E8E7BF" d="M136.88,183.18c0.34,1.35,2.03,2.15,3.78,1.78c1.75-0.37,2.89-1.77,2.55-3.12
						c-0.34-1.35-2.03-2.15-3.78-1.78C137.68,180.42,136.54,181.82,136.88,183.18z"/>
					<path fill="#E8E7BF" d="M154,181.23c0.47,1.87-0.39,3.64-1.91,3.96c-1.52,0.32-3.14-0.93-3.6-2.79
						c-0.47-1.87,0.39-3.64,1.92-3.97C151.92,178.11,153.53,179.36,154,181.23z"/>
					<path fill="#E8E7BF" d="M151.11,184.03c0.51,2.03-0.64,4.01-2.57,4.42c-1.93,0.41-3.9-0.91-4.41-2.94
						c-0.51-2.03,0.64-4.01,2.57-4.42C148.63,180.68,150.6,182,151.11,184.03z"/>
					<path fill="#E8E7BF" d="M144.91,179.99c-3.7,0.79-2.29,6.43,1.41,5.64C150.52,184.74,149.11,179.09,144.91,179.99z"/>
				</g>
				<g>
					<path fill="#E8E7BF" d="M193.22,178.14c0.58,2.32-1.02,4.64-3.58,5.18c-2.56,0.54-5.1-0.9-5.67-3.22
						c-0.58-2.32,1.02-4.64,3.58-5.18C190.1,174.39,192.64,175.82,193.22,178.14z"/>
					<path fill="#E8E7BF" d="M197.27,182.72c0.4,1.6-0.7,3.2-2.44,3.57s-3.49-0.63-3.89-2.22c-0.4-1.6,0.69-3.2,2.44-3.57
						C195.13,180.12,196.87,181.12,197.27,182.72z"/>
					<path fill="#E8E7BF" d="M193.83,173.97c-0.37-1.49-1.42-2.53-2.35-2.34c-0.93,0.2-1.38,1.56-1,3.05s1.42,2.53,2.35,2.34
						C193.75,176.82,194.2,175.45,193.83,173.97z"/>
					<path fill="#E8E7BF" d="M183.94,184.77c0.3,1.19,1.52,1.95,2.73,1.69c1.21-0.26,1.95-1.43,1.65-2.62
						c-0.3-1.19-1.52-1.94-2.73-1.69C184.38,182.4,183.64,183.58,183.94,184.77z"/>
					<path fill="#E8E7BF" d="M187.58,175.04c0.32,1.29-0.77,2.63-2.45,2.98c-1.67,0.36-3.29-0.4-3.61-1.7
						c-0.32-1.29,0.77-2.63,2.45-2.98C185.63,172.99,187.25,173.75,187.58,175.04z"/>
					<path fill="#E8E7BF" d="M181.87,181.29c0.34,1.36,1.99,2.16,3.7,1.8c1.7-0.36,2.81-1.75,2.47-3.11
						c-0.34-1.35-1.99-2.16-3.7-1.8C182.64,178.55,181.54,179.94,181.87,181.29z"/>
					<path fill="#E8E7BF" d="M190.83,174.94c-0.25-0.98-1.14-1.63-2-1.45c-0.86,0.18-1.36,1.13-1.11,2.11
						c0.25,0.98,1.14,1.64,2,1.45C190.58,176.87,191.07,175.92,190.83,174.94z"/>
					<path fill="#E8E7BF" d="M196.16,178.26c0.34,1.35-0.69,2.73-2.3,3.07c-1.61,0.34-3.19-0.48-3.53-1.83
						c-0.34-1.35,0.69-2.73,2.3-3.07C194.24,176.09,195.82,176.91,196.16,178.26z"/>
					<path fill="#E8E7BF" d="M193.61,178.12c-0.22-1.54-1.61-2.96-3.75-2.51c-0.13,0.03-0.25,0.06-0.37,0.1
						c-0.65-0.52-1.55-0.78-2.65-0.55c-3.97,0.84-2.57,6.46,1.38,5.65c0.5,1.21,1.76,2.13,3.54,1.75
						C194.24,182.03,194.63,179.64,193.61,178.12z"/>
					<path fill="#A08047" d="M190.8,177.08c-0.22-0.37-0.76-0.28-0.92,0.08c-0.15,0.34-0.25,0.81-0.46,1.17
						c-0.05,0-0.09,0-0.14,0.01c-0.16-0.06-0.35-0.06-0.53,0.07c-0.19,0.14-0.43,0-0.58-0.13c-0.21-0.16-0.49-0.2-0.71-0.02
						c-0.18,0.16-0.23,0.48-0.02,0.65c0.28,0.21,0.58,0.37,0.89,0.43c-0.15,0.23-0.26,0.48-0.32,0.75
						c-0.05,0.25,0.04,0.49,0.33,0.57c0.22,0.06,0.52-0.04,0.61-0.24c0.1,0.01,0.2,0,0.29-0.05c0.08-0.05,0.16-0.09,0.24-0.14
						c0.25,0.12,0.51,0.19,0.8,0.15c0.44-0.08,0.7-0.4,0.83-0.77C191.39,178.84,191.22,177.78,190.8,177.08z"/>
				</g>
				<g>
					<path fill="#E8E7BF" d="M201.99,183.13c0.67,2.67-1.41,5.38-4.64,6.07c-3.23,0.68-6.38-0.92-7.05-3.59
						c-0.67-2.67,1.41-5.38,4.64-6.07C198.17,178.85,201.32,180.46,201.99,183.13z"/>
					<path fill="#E8E7BF" d="M194.48,177.68c0.52,2.09-0.91,4.18-3.19,4.67c-2.29,0.48-4.56-0.82-5.09-2.91
						c-0.52-2.09,0.91-4.18,3.19-4.67C191.67,174.29,193.95,175.59,194.48,177.68z"/>
					<path fill="#E8E7BF" d="M195.52,179.81c0.48,1.93,2.56,3.13,4.65,2.69c2.08-0.44,3.38-2.36,2.9-4.29
						c-0.48-1.93-2.56-3.13-4.65-2.69C196.34,175.96,195.04,177.88,195.52,179.81z"/>
					<path fill="#E8E7BF" d="M195.79,182.95c-0.47-1.89-3.14-2.93-5.97-2.33c-2.82,0.6-4.73,2.61-4.26,4.5
						c0.47,1.89,3.14,2.93,5.97,2.33C194.36,186.86,196.26,184.84,195.79,182.95z"/>
					<path fill="#E8E7BF" d="M193.65,177.74c0.32,1.29,1.27,2.19,2.12,2.01c0.85-0.18,1.27-1.37,0.95-2.67
						c-0.32-1.29-1.27-2.19-2.12-2.01C193.75,175.25,193.33,176.45,193.65,177.74z"/>
					<path fill="#E8E7BF" d="M192.7,176.57c-3.46,0.73-2.05,6.38,1.41,5.65C198.56,181.27,197.15,175.63,192.7,176.57z"/>
					<path fill="#A08047" d="M196.91,178.16c-0.12,0.21-0.24,0.42-0.39,0.62c-0.44,0.45-1.06,0.4-1.52,0.14
						c0.17-0.55,0.16-1.19-0.11-1.88c-0.1-0.26-0.42-0.48-0.72-0.3c-0.62,0.37-0.87,0.83-0.86,1.29c-0.38,0.59-0.64,1.15-0.68,1.79
						c-0.4,0.05-0.86-0.03-1.36-0.26c-0.57-0.27-1.1,0.5-0.53,0.78c0.78,0.37,1.56,0.45,2.23,0.32c0.09,0.02,0.18,0.03,0.26,0.02
						c0.29-0.03,0.59-0.04,0.88-0.06c-0.02,0.25-0.11,0.48-0.28,0.7c-0.35,0.5,0.5,0.98,0.85,0.48c0.3-0.44,0.43-0.87,0.42-1.35
						c0.01,0,0.03,0.01,0.04,0.01c0.96,0.13,1.66-0.43,2.17-1.11c0.2-0.21,0.37-0.48,0.51-0.81
						C198.01,178.06,197.17,177.7,196.91,178.16z"/>
				</g>
				<g>
					<path fill="#E8E7BF" d="M158.95,182.56c0.28,1.11-1.79,2.49-4.61,3.09c-2.83,0.6-5.34,0.19-5.62-0.92
						c-0.27-1.11,1.79-2.49,4.61-3.09C156.15,181.04,158.67,181.46,158.95,182.56z"/>
					<path fill="#E8E7BF" d="M159.93,179.66c0.42,1.66-1.1,3.4-3.39,3.88c-2.29,0.49-4.48-0.47-4.89-2.13
						c-0.42-1.66,1.1-3.4,3.39-3.89S159.51,177.99,159.93,179.66z"/>
					<path fill="#E8E7BF" d="M161.09,184.3c0.48,1.93-0.22,3.72-1.56,4.01c-1.34,0.28-2.83-1.05-3.31-2.97
						c-0.48-1.93,0.22-3.72,1.56-4.01C159.13,181.04,160.61,182.37,161.09,184.3z"/>
					<path fill="#E8E7BF" d="M152.59,185.19c0.41,1.63,1.66,2.75,2.81,2.5c1.14-0.24,1.74-1.76,1.33-3.38
						c-0.41-1.63-1.66-2.75-2.81-2.5C152.78,182.05,152.19,183.56,152.59,185.19z"/>
					<path fill="#A08047" d="M155.89,186.28c-0.2,0.08-0.39,0.1-0.57,0.05c0.34-1.15,0.93-2.88-0.75-3.17
						c-0.24-0.04-0.57,0.04-0.63,0.3c-0.1,0.49-0.12,1-0.31,1.47c-0.23,0.55,0.72,0.82,0.95,0.27c0.08-0.18,0.12-0.36,0.15-0.54
						c0,0.55-0.33,1.3-0.45,1.7c-0.19-0.13-0.36-0.29-0.51-0.49c-0.36-0.49-1.12-0.11-0.88,0.44c0.31,0.71,0.85,1.12,1.46,1.25
						c0.03,0.04,0.07,0.08,0.12,0.11l0.3,0.17c0.21,0.12,0.47,0.07,0.63-0.09c0.14,0.03,0.29,0.05,0.44,0.07
						c0.45,0.05,0.6-0.38,0.44-0.67c0.06-0.04,0.13-0.08,0.19-0.13C156.91,186.67,156.38,186.04,155.89,186.28z"/>
				</g>
				<g>
					<path fill="#E8E7BF" d="M205.68,171.74c-2.68-1.99-3.08-5.59-0.9-8.04s6.11-2.83,8.78-0.85c2.68,1.99,3.08,5.59,0.9,8.04
						C212.28,173.34,208.35,173.72,205.68,171.74z"/>
					<path fill="#E8E7BF" d="M215,167.26c-2.25-1.67-2.58-4.7-0.75-6.76c1.83-2.06,5.13-2.38,7.38-0.71
						c2.25,1.67,2.58,4.69,0.76,6.75C220.55,168.61,217.25,168.93,215,167.26z"/>
					<path fill="#E8E7BF" d="M205.26,162.18c-2.5-1.85-5.34-2.43-6.36-1.28c-1.02,1.15,0.18,3.58,2.68,5.43
						c2.5,1.85,5.34,2.43,6.36,1.28C208.95,166.47,207.75,164.04,205.26,162.18z"/>
					<path fill="#E8E7BF" d="M209.62,174.66c1.85,1.38,4.24,1.5,5.33,0.27c1.09-1.23,0.47-3.34-1.39-4.72
						c-1.85-1.38-4.24-1.5-5.33-0.27C207.14,171.17,207.76,173.29,209.62,174.66z"/>
					<path fill="#E8E7BF" d="M201.99,173c-1.18-0.88-1.09-2.76,0.2-4.21c1.29-1.45,3.28-1.92,4.46-1.04s1.09,2.76-0.2,4.21
						C205.16,173.4,203.17,173.87,201.99,173z"/>
					<path fill="#E8E7BF" d="M208.24,171.07c1.15,1.28,3.41,1.79,4.9,0.11c0.96-1.09,0.88-2.28,0.26-3.19
						c0.29-0.18,0.58-0.41,0.84-0.71c2.24-2.52-1.37-5.67-3.97-4.37c-1.21-0.7-2.86-0.73-4.03,0.59c-0.69,0.78-0.84,1.61-0.64,2.36
						c-0.24,0.16-0.47,0.35-0.69,0.59C202.8,168.82,205.7,171.69,208.24,171.07z"/>
				</g>
				<g>
					<path fill="#E8E7BF" d="M173.43,188.29c-2.6-1.93-3-5.44-0.88-7.83c2.12-2.39,5.95-2.76,8.55-0.83c2.6,1.93,3,5.44,0.88,7.83
						C179.86,189.85,176.04,190.22,173.43,188.29z"/>
					<path fill="#E8E7BF" d="M179.29,183.01c-1.5-1.11-1.72-3.13-0.5-4.51c1.22-1.37,3.42-1.59,4.92-0.47
						c1.5,1.11,1.72,3.13,0.5,4.5C182.99,183.91,180.79,184.12,179.29,183.01z"/>
					<path fill="#E8E7BF" d="M168.42,183.19c-1.5-1.11-1.72-3.13-0.5-4.5c1.22-1.38,3.42-1.59,4.92-0.48c1.5,1.11,1.72,3.13,0.5,4.5
						C172.12,184.09,169.92,184.3,168.42,183.19z"/>
					<path fill="#E8E7BF" d="M179.76,174.51c-2.35-1.75-5.81-1.41-7.73,0.75c-1.92,2.16-1.56,5.33,0.79,7.08
						c2.35,1.75,5.82,1.42,7.73-0.75C182.47,179.43,182.12,176.26,179.76,174.51z"/>
					<path fill="#E8E7BF" d="M179.89,186.2c2.58-2.9-2.33-6.55-4.91-3.64C172.4,185.46,177.31,189.11,179.89,186.2z"/>
				</g>
				<g>
					<path fill="#E8E7BF" d="M175.93,162.23c-2.02-1.5-2.31-4.22-0.65-6.09c1.65-1.87,4.63-2.17,6.64-0.67s2.31,4.22,0.65,6.09
						C180.92,163.42,177.95,163.72,175.93,162.23z"/>
					<path fill="#E8E7BF" d="M169.66,160.91c-1.39-1.03-1.6-2.91-0.47-4.18c1.13-1.28,3.18-1.47,4.57-0.44
						c1.39,1.03,1.6,2.91,0.47,4.18C173.09,161.74,171.05,161.94,169.66,160.91z"/>
					<path fill="#E8E7BF" d="M178.26,165.85c1.29,0.96,2.83,1.19,3.43,0.51s0.04-2-1.25-2.96c-1.29-0.96-2.83-1.19-3.43-0.51
						C176.4,163.57,176.96,164.89,178.26,165.85z"/>
					<path fill="#E8E7BF" d="M178.82,151.79c-1.03-0.77-2.51-0.67-3.29,0.21c-0.78,0.88-0.58,2.22,0.45,2.99
						c1.03,0.77,2.51,0.67,3.29-0.21C180.06,153.89,179.85,152.55,178.82,151.79z"/>
					<path fill="#E8E7BF" d="M182.48,161.48c-1.12-0.83-1.15-2.5-0.07-3.72c1.08-1.22,2.87-1.54,4-0.7c1.13,0.83,1.16,2.5,0.07,3.72
						C185.39,162,183.6,162.32,182.48,161.48z"/>
					<path fill="#E8E7BF" d="M182.78,153.35c-1.18-0.88-3.02-0.58-4.13,0.67c-1.1,1.24-1.04,2.96,0.13,3.83
						c1.18,0.87,3.02,0.57,4.13-0.67C184.02,155.94,183.96,154.23,182.78,153.35z"/>
					<path fill="#E8E7BF" d="M179.98,163.4c0.85,0.64,2,0.64,2.56,0.02c0.56-0.63,0.31-1.65-0.54-2.29c-0.86-0.64-2-0.64-2.56-0.02
						C178.88,161.74,179.12,162.76,179.98,163.4z"/>
					<path fill="#E8E7BF" d="M173.53,163.79c-1.18-0.87-1.29-2.54-0.24-3.71c1.04-1.18,2.84-1.42,4.02-0.55
						c1.18,0.88,1.29,2.53,0.24,3.71C176.51,164.41,174.71,164.66,173.53,163.79z"/>
					<path fill="#E8E7BF" d="M175.64,162.46c1.21,1.09,3.27,1.42,4.65-0.14c0.08-0.09,0.16-0.19,0.23-0.28
						c0.86,0.04,1.75-0.26,2.46-1.06c2.57-2.9-2.31-6.53-4.89-3.66c-1.21-0.67-2.82-0.68-3.98,0.62
						C172.51,159.74,173.81,161.83,175.64,162.46z"/>
					<path fill="#A08047" d="M178.55,161.69c0.42,0.16,0.79-0.21,0.67-0.58c-0.11-0.35-0.35-0.77-0.42-1.18
						c0.04-0.03,0.07-0.05,0.1-0.09c0.17-0.04,0.32-0.15,0.37-0.35c0.05-0.21,0.34-0.24,0.54-0.23c0.27,0.01,0.53-0.12,0.57-0.38
						c0.04-0.22-0.14-0.51-0.42-0.52c-0.36-0.01-0.71,0.04-1,0.17c-0.04-0.26-0.11-0.52-0.25-0.76c-0.13-0.22-0.37-0.36-0.64-0.27
						c-0.21,0.07-0.39,0.32-0.31,0.53c-0.08,0.05-0.15,0.11-0.19,0.2c-0.03,0.08-0.06,0.16-0.1,0.24c-0.27,0.04-0.53,0.13-0.73,0.33
						c-0.3,0.31-0.28,0.71-0.14,1.08C176.91,160.65,177.76,161.38,178.55,161.69z"/>
				</g>
				<g>
					<path fill="#E8E7BF" d="M150.69,190.27"/>
					<path fill="#E8E7BF" d="M154.75,187.98c-1.64-1.22-4.45-0.54-6.28,1.53"/>
				</g>
				<g>
					<path fill="#E8E7BF" d="M146.72,190.36c-0.96-0.71-0.26-2.96,1.57-5.03c1.83-2.06,4.09-3.15,5.06-2.44s0.26,2.97-1.57,5.03
						C149.95,189.98,147.68,191.07,146.72,190.36z"/>
					<path fill="#E8E7BF" d="M147.96,188.23c1.48-1.67,3.85-2.15,5.29-1.08"/>
					<path fill="#E8E7BF" d="M143.86,190.2c-1.68-1.25-2.33-3.05-1.46-4.03c0.87-0.98,2.94-0.77,4.61,0.48
						c1.67,1.24,2.33,3.05,1.46,4.03C147.6,191.66,145.54,191.45,143.86,190.2z"/>
					<path fill="#E8E7BF" d="M149.98,184.71c-1.41-1.05-3.16-1.22-3.9-0.39c-0.74,0.83-0.2,2.36,1.22,3.41
						c1.41,1.05,3.16,1.22,3.9,0.39C151.93,187.29,151.39,185.76,149.98,184.71z"/>
					<path fill="#A08047" d="M146.64,185.72c0.1-0.18,0.24-0.29,0.42-0.36c0.5,1.09,1.2,2.79,2.72,2.07
						c0.22-0.1,0.42-0.35,0.29-0.59c-0.25-0.45-0.58-0.86-0.74-1.34c-0.19-0.57-1.12-0.24-0.93,0.32c0.06,0.18,0.15,0.35,0.24,0.51
						c-0.37-0.43-0.61-1.21-0.78-1.59c0.24,0,0.48,0.03,0.73,0.1c0.62,0.19,0.96-0.54,0.4-0.84c-0.72-0.38-1.42-0.4-1.99-0.16
						c-0.05-0.01-0.11-0.02-0.17-0.01l-0.35,0.03c-0.24,0.02-0.42,0.21-0.44,0.43c-0.13,0.06-0.26,0.12-0.39,0.2
						c-0.39,0.21-0.22,0.64,0.11,0.78c-0.02,0.07-0.04,0.13-0.06,0.21C145.57,185.98,146.41,186.18,146.64,185.72z"/>
				</g>
				<g>
					<path fill="#E8E7BF" d="M169.29,189.75c-0.75-2.99,1.3-5.98,4.57-6.68c3.27-0.7,6.53,1.17,7.28,4.17"/>
					<path fill="#E8E7BF" d="M166.16,189.56c-0.43-1.72,0.75-3.44,2.63-3.84c1.88-0.4,3.76,0.67,4.19,2.4"/>
					<path fill="#E8E7BF" d="M171.03,188.52"/>
					<path fill="#E8E7BF" d="M174.59,185.27c-3.95,0.84-2.54,6.48,1.41,5.64C180.2,190.02,178.79,184.37,174.59,185.27z"/>
				</g>
			</g>
			<g>
				<g>
					<path fill="#FF0000" d="M27,115V98h128.76c0,0-6.59,5.82-6.59,8.5c0,2.68,6.59,8.5,6.59,8.5H27z"/>
					<path fill="#FFFFFF" d="M27,129v-14h128.76c0,0-6.59,4.3-6.59,7c0,2.7,6.59,7,6.59,7H27z"/>
					<path fill="#FFFFFF" d="M27,163v-17h128.76c0,0-6.59,5.82-6.59,8.5s6.59,8.5,6.59,8.5H27z"/>
					<path fill="#FFFFFF" d="M27,194v-17h128.76c0,0-6.59,5.8-6.59,8.5s6.59,8.5,6.59,8.5H27z"/>
					<path fill="#FF0000" d="M27,146v-17h128.76c0,0-6.59,5.82-6.59,8.5c0,2.68,6.59,8.5,6.59,8.5H27z"/>
					<path fill="#FF0000" d="M27,177v-14h128.76c0,0-6.59,4.32-6.59,7s6.59,7,6.59,7H27z"/>
				</g>
				<g>
					<path fill="#FF0000" d="M43.14,81l4.95-5h127.64c0,0-8.23,1.59-9.06,2.5c-0.83,0.91,4.12,2.5,4.12,2.5H43.14z"/>
					<path fill="#FFFFFF" d="M38.06,88l5.07-7h127.64c0,0-8.29,2.58-9.13,3.5c-0.84,0.92,4.05,3.5,4.05,3.5H38.06z"/>
					<path fill="#FFFFFF" d="M28.17,98l4.95-6h127.64c0,0-8.23,2.09-9.06,3c-0.83,0.91,4.12,3,4.12,3H28.17z"/>
					<path fill="#FF0000" d="M33.12,92l4.95-4H165.7c0,0-8.23,1.09-9.06,2c-0.83,0.91,4.12,2,4.12,2H33.12z"/>
				</g>
			</g>
		</g>
	</g>
</g>
</svg>
